<svg width="2400" height="1540" viewBox="0 0 2400 1540" fill="none" xmlns="http://www.w3.org/2000/svg">
<g filter="url(#filter0_i_105_12)">
<rect x="0.390442" width="2400" height="1540.18" fill="url(#paint0_linear_105_12)"/>
</g>
<path d="M88.3461 515.609C89.4227 513.852 91.9817 513.852 93.0583 515.609L103.318 532.343C104.443 534.177 103.119 536.529 100.963 536.529H80.4413C78.2853 536.529 76.963 534.177 78.0866 532.343L88.3461 515.609V515.609Z" stroke="#D0D0D0" stroke-width="2"/>
<path d="M468.896 514.518C476.519 514.518 482.699 508.358 482.699 500.76C482.699 493.163 476.519 487.003 468.896 487.003C461.273 487.003 455.093 493.163 455.093 500.76C455.093 508.358 461.273 514.518 468.896 514.518Z" stroke="#D0D0D0" stroke-width="2"/>
<path d="M238.391 573.673L216.307 595.685M238.391 595.685L216.307 573.673L238.391 595.685Z" stroke="#D0D0D0" stroke-width="2" stroke-linecap="round"/>
<path d="M212.166 283.397H192.842C191.317 283.397 190.081 284.629 190.081 286.149V305.409C190.081 306.928 191.317 308.16 192.842 308.16H212.166C213.69 308.16 214.926 306.928 214.926 305.409V286.149C214.926 284.629 213.69 283.397 212.166 283.397Z" stroke="#D0D0D0" stroke-width="2"/>
<path d="M231.674 775.451C230.125 774.089 230.569 771.577 232.492 770.826L250.808 763.661C252.815 762.875 254.91 764.583 254.535 766.699L250.972 786.843C250.597 788.959 248.043 789.848 246.427 788.427L231.674 775.451V775.451Z" stroke="#D0D0D0" stroke-width="2"/>
<path d="M296.677 401.73C298.001 394.247 292.988 387.112 285.481 385.793C277.974 384.473 270.815 389.469 269.491 396.952C268.167 404.434 273.18 411.57 280.687 412.889C288.194 414.208 295.353 409.212 296.677 401.73Z" stroke="#D0D0D0" stroke-width="2"/>
<path d="M315.1 638.256L333.014 663.755M336.849 642.078L311.265 659.933L336.849 642.078Z" stroke="#D0D0D0" stroke-width="2" stroke-linecap="round"/>
<path d="M23.7332 613.591L20.3776 632.559C20.1129 634.055 21.1154 635.482 22.6169 635.746L41.6471 639.091C43.1485 639.355 44.5803 638.355 44.845 636.859L48.2006 617.891C48.4653 616.395 47.4628 614.968 45.9613 614.704L26.9311 611.36C25.4297 611.096 23.9979 612.095 23.7332 613.591Z" stroke="#D0D0D0" stroke-width="2"/>
<path d="M400.288 358.777C401.364 357.02 403.923 357.02 405 358.777L415.26 375.511C416.384 377.345 415.061 379.697 412.905 379.697H392.383C390.227 379.697 388.905 377.345 390.028 375.511L400.288 358.777V358.777Z" stroke="#D0D0D0" stroke-width="2"/>
<path d="M780.838 357.686C788.461 357.686 794.64 351.526 794.64 343.929C794.64 336.331 788.461 330.171 780.838 330.171C773.215 330.171 767.035 336.331 767.035 343.929C767.035 351.526 773.215 357.686 780.838 357.686Z" stroke="#D0D0D0" stroke-width="2"/>
<path d="M550.333 416.841L528.248 438.853M550.333 438.853L528.248 416.841L550.333 438.853Z" stroke="#D0D0D0" stroke-width="2" stroke-linecap="round"/>
<path d="M524.107 126.566H504.784C503.259 126.566 502.023 127.797 502.023 129.317V148.577C502.023 150.097 503.259 151.328 504.784 151.328H524.107C525.632 151.328 526.868 150.097 526.868 148.577V129.317C526.868 127.797 525.632 126.566 524.107 126.566Z" stroke="#D0D0D0" stroke-width="2"/>
<path d="M279.982 1332.62C278.434 1331.25 278.878 1328.74 280.801 1327.99L299.117 1320.83C301.124 1320.04 303.219 1321.75 302.844 1323.86L299.281 1344.01C298.906 1346.12 296.352 1347.01 294.735 1345.59L279.982 1332.62V1332.62Z" stroke="#D0D0D0" stroke-width="2"/>
<path d="M344.986 958.895C346.31 951.412 341.297 944.277 333.79 942.958C326.283 941.638 319.124 946.635 317.8 954.117C316.476 961.599 321.489 968.735 328.996 970.054C336.503 971.373 343.662 966.377 344.986 958.895Z" stroke="#D0D0D0" stroke-width="2"/>
<path d="M363.409 1195.42L381.323 1220.92M385.157 1199.24L359.574 1217.1L385.157 1199.24Z" stroke="#D0D0D0" stroke-width="2" stroke-linecap="round"/>
<path d="M72.0421 1170.76L68.6866 1189.72C68.4218 1191.22 69.4244 1192.65 70.9258 1192.91L89.956 1196.26C91.4575 1196.52 92.8892 1195.52 93.154 1194.02L96.5095 1175.06C96.7743 1173.56 95.7717 1172.13 94.2703 1171.87L75.2401 1168.52C73.7386 1168.26 72.3069 1169.26 72.0421 1170.76Z" stroke="#D0D0D0" stroke-width="2"/>
<path d="M1997.26 445.447C1998.33 443.69 2000.89 443.69 2001.97 445.447L2012.23 462.181C2013.35 464.015 2012.03 466.367 2009.87 466.367H1989.35C1987.2 466.367 1985.87 464.015 1987 462.181L1997.26 445.447V445.447Z" stroke="#D0D0D0" stroke-width="2"/>
<path d="M2377.81 444.356C2385.43 444.356 2391.61 438.197 2391.61 430.599C2391.61 423.001 2385.43 416.842 2377.81 416.842C2370.18 416.842 2364 423.001 2364 430.599C2364 438.197 2370.18 444.356 2377.81 444.356Z" stroke="#D0D0D0" stroke-width="2"/>
<path d="M2147.3 503.512L2125.22 525.523M2147.3 525.523L2125.22 503.512L2147.3 525.523Z" stroke="#D0D0D0" stroke-width="2" stroke-linecap="round"/>
<path d="M2121.08 213.236H2101.75C2100.23 213.236 2098.99 214.468 2098.99 215.987V235.247C2098.99 236.767 2100.23 237.999 2101.75 237.999H2121.08C2122.6 237.999 2123.84 236.767 2123.84 235.247V215.987C2123.84 214.468 2122.6 213.236 2121.08 213.236Z" stroke="#D0D0D0" stroke-width="2"/>
<path d="M699.585 1113.88C698.036 1112.52 698.48 1110 700.403 1109.25L718.719 1102.09C720.726 1101.3 722.821 1103.01 722.447 1105.13L718.883 1125.27C718.509 1127.39 715.954 1128.28 714.338 1126.85L699.585 1113.88V1113.88Z" stroke="#D0D0D0" stroke-width="2"/>
<path d="M764.588 740.156C765.912 732.674 760.899 725.539 753.392 724.219C745.885 722.9 738.726 727.896 737.402 735.378C736.079 742.861 741.091 749.996 748.598 751.315C756.106 752.635 763.264 747.639 764.588 740.156Z" stroke="#D0D0D0" stroke-width="2"/>
<path d="M783.011 976.683L800.925 1002.18M804.76 980.505L779.176 998.36L804.76 980.505Z" stroke="#D0D0D0" stroke-width="2" stroke-linecap="round"/>
<path d="M491.644 952.018L488.289 970.985C488.024 972.482 489.026 973.909 490.528 974.173L509.558 977.517C511.06 977.781 512.491 976.782 512.756 975.285L516.112 956.318C516.376 954.822 515.374 953.395 513.872 953.131L494.842 949.786C493.341 949.522 491.909 950.522 491.644 952.018Z" stroke="#D0D0D0" stroke-width="2"/>
<path d="M967.357 1032.71C965.808 1031.35 966.253 1028.84 968.175 1028.09L986.491 1020.92C988.499 1020.13 990.593 1021.84 990.219 1023.96L986.655 1044.1C986.281 1046.22 983.727 1047.11 982.11 1045.69L967.357 1032.71V1032.71Z" stroke="#D0D0D0" stroke-width="2"/>
<path d="M1032.36 658.989C1033.68 651.507 1028.67 644.371 1021.16 643.052C1013.66 641.733 1006.5 646.729 1005.17 654.211C1003.85 661.694 1008.86 668.829 1016.37 670.148C1023.88 671.468 1031.04 666.471 1032.36 658.989Z" stroke="#D0D0D0" stroke-width="2"/>
<path d="M1050.78 895.515L1068.7 921.015M1072.53 899.338L1046.95 917.192L1072.53 899.338Z" stroke="#D0D0D0" stroke-width="2" stroke-linecap="round"/>
<path d="M759.417 870.851L756.061 889.818C755.796 891.315 756.799 892.742 758.3 893.006L777.331 896.35C778.832 896.614 780.264 895.615 780.529 894.118L783.884 875.151C784.149 873.654 783.146 872.227 781.645 871.963L762.615 868.619C761.113 868.355 759.681 869.354 759.417 870.851Z" stroke="#D0D0D0" stroke-width="2"/>
<path d="M1450.45 1255.58C1448.9 1254.21 1449.35 1251.7 1451.27 1250.95L1469.59 1243.79C1471.59 1243 1473.69 1244.71 1473.31 1246.82L1469.75 1266.97C1469.38 1269.08 1466.82 1269.97 1465.2 1268.55L1450.45 1255.58V1255.58Z" stroke="#D0D0D0" stroke-width="2"/>
<path d="M1515.46 881.855C1516.78 874.373 1511.77 867.237 1504.26 865.918C1496.75 864.599 1489.59 869.595 1488.27 877.077C1486.95 884.56 1491.96 891.695 1499.47 893.014C1506.97 894.334 1514.13 889.338 1515.46 881.855Z" stroke="#D0D0D0" stroke-width="2"/>
<path d="M1533.88 1118.38L1551.79 1143.88M1555.63 1122.2L1530.04 1140.06L1555.63 1122.2Z" stroke="#D0D0D0" stroke-width="2" stroke-linecap="round"/>
<path d="M1242.51 1093.72L1239.16 1112.68C1238.89 1114.18 1239.89 1115.61 1241.4 1115.87L1260.43 1119.22C1261.93 1119.48 1263.36 1118.48 1263.62 1116.98L1266.98 1098.02C1267.24 1096.52 1266.24 1095.09 1264.74 1094.83L1245.71 1091.49C1244.21 1091.22 1242.78 1092.22 1242.51 1093.72Z" stroke="#D0D0D0" stroke-width="2"/>
<path d="M1204.98 589.897C1206.06 588.14 1208.62 588.14 1209.69 589.897L1219.95 606.631C1221.08 608.465 1219.75 610.817 1217.6 610.817H1197.08C1194.92 610.817 1193.6 608.465 1194.72 606.631L1204.98 589.897V589.897Z" stroke="#D0D0D0" stroke-width="2"/>
<path d="M1585.53 588.806C1593.16 588.806 1599.33 582.647 1599.33 575.049C1599.33 567.451 1593.16 561.292 1585.53 561.292C1577.91 561.292 1571.73 567.451 1571.73 575.049C1571.73 582.647 1577.91 588.806 1585.53 588.806Z" stroke="#D0D0D0" stroke-width="2"/>
<path d="M1355.03 647.962L1332.94 669.973M1355.03 669.973L1332.94 647.962L1355.03 669.973Z" stroke="#D0D0D0" stroke-width="2" stroke-linecap="round"/>
<path d="M1328.8 357.686H1309.48C1307.95 357.686 1306.72 358.918 1306.72 360.437V379.697C1306.72 381.217 1307.95 382.449 1309.48 382.449H1328.8C1330.33 382.449 1331.56 381.217 1331.56 379.697V360.437C1331.56 358.918 1330.33 357.686 1328.8 357.686Z" stroke="#D0D0D0" stroke-width="2"/>
<path d="M1348.31 849.74C1346.76 848.378 1347.21 845.866 1349.13 845.115L1367.45 837.95C1369.45 837.164 1371.55 838.872 1371.17 840.988L1367.61 861.132C1367.23 863.248 1364.68 864.137 1363.06 862.716L1348.31 849.74V849.74Z" stroke="#D0D0D0" stroke-width="2"/>
<path d="M1413.31 476.019C1414.64 468.536 1409.63 461.401 1402.12 460.082C1394.61 458.762 1387.45 463.758 1386.13 471.241C1384.8 478.723 1389.82 485.859 1397.32 487.178C1404.83 488.497 1411.99 483.501 1413.31 476.019Z" stroke="#D0D0D0" stroke-width="2"/>
<path d="M1431.74 712.545L1449.65 738.044M1453.49 716.367L1427.9 734.222L1453.49 716.367Z" stroke="#D0D0D0" stroke-width="2" stroke-linecap="round"/>
<path d="M1140.37 687.881L1137.02 706.848C1136.75 708.345 1137.75 709.772 1139.25 710.035L1158.28 713.38C1159.79 713.644 1161.22 712.645 1161.48 711.148L1164.84 692.181C1165.1 690.684 1164.1 689.257 1162.6 688.993L1143.57 685.649C1142.07 685.385 1140.64 686.384 1140.37 687.881Z" stroke="#D0D0D0" stroke-width="2"/>
<path d="M1516.92 433.065C1518 431.309 1520.56 431.309 1521.63 433.065L1531.89 449.8C1533.02 451.634 1531.7 453.986 1529.54 453.986H1509.02C1506.86 453.986 1505.54 451.634 1506.66 449.8L1516.92 433.065V433.065Z" stroke="#D0D0D0" stroke-width="2"/>
<path d="M1897.47 431.975C1905.1 431.975 1911.28 425.815 1911.28 418.217C1911.28 410.619 1905.1 404.46 1897.47 404.46C1889.85 404.46 1883.67 410.619 1883.67 418.217C1883.67 425.815 1889.85 431.975 1897.47 431.975Z" stroke="#D0D0D0" stroke-width="2"/>
<path d="M1666.97 491.13L1644.88 513.142M1666.97 513.142L1644.88 491.13L1666.97 513.142Z" stroke="#D0D0D0" stroke-width="2" stroke-linecap="round"/>
<path d="M1640.74 200.854H1621.42C1619.89 200.854 1618.66 202.086 1618.66 203.606V222.866C1618.66 224.385 1619.89 225.617 1621.42 225.617H1640.74C1642.27 225.617 1643.5 224.385 1643.5 222.866V203.606C1643.5 202.086 1642.27 200.854 1640.74 200.854Z" stroke="#D0D0D0" stroke-width="2"/>
<path d="M1181.3 427.395C1179.75 426.033 1180.19 423.521 1182.12 422.77L1200.43 415.605C1202.44 414.819 1204.53 416.527 1204.16 418.643L1200.6 438.787C1200.22 440.903 1197.67 441.792 1196.05 440.371L1181.3 427.395V427.395Z" stroke="#D0D0D0" stroke-width="2"/>
<path d="M1246.3 53.6736C1247.63 46.1912 1242.61 39.0559 1235.11 37.7366C1227.6 36.4172 1220.44 41.4134 1219.12 48.8958C1217.79 56.3783 1222.81 63.5135 1230.31 64.8329C1237.82 66.1522 1244.98 61.1561 1246.3 53.6736Z" stroke="#D0D0D0" stroke-width="2"/>
<path d="M1264.73 290.2L1282.64 315.699M1286.47 294.022L1260.89 311.877L1286.47 294.022Z" stroke="#D0D0D0" stroke-width="2" stroke-linecap="round"/>
<path d="M973.358 265.536L970.003 284.503C969.738 285.999 970.741 287.426 972.242 287.69L991.272 291.035C992.774 291.299 994.206 290.299 994.47 288.803L997.826 269.836C998.091 268.339 997.088 266.912 995.587 266.648L976.556 263.304C975.055 263.04 973.623 264.039 973.358 265.536Z" stroke="#D0D0D0" stroke-width="2"/>
<path d="M1816.22 1188.17C1814.67 1186.8 1815.12 1184.29 1817.04 1183.54L1835.36 1176.38C1837.36 1175.59 1839.46 1177.3 1839.09 1179.41L1835.52 1199.56C1835.15 1201.67 1832.59 1202.56 1830.98 1201.14L1816.22 1188.17V1188.17Z" stroke="#D0D0D0" stroke-width="2"/>
<path d="M1881.23 814.445C1882.55 806.962 1877.54 799.827 1870.03 798.508C1862.52 797.188 1855.36 802.185 1854.04 809.667C1852.72 817.149 1857.73 824.285 1865.24 825.604C1872.74 826.923 1879.9 821.927 1881.23 814.445Z" stroke="#D0D0D0" stroke-width="2"/>
<path d="M1899.65 1050.97L1917.56 1076.47M1921.4 1054.79L1895.81 1072.65L1921.4 1054.79Z" stroke="#D0D0D0" stroke-width="2" stroke-linecap="round"/>
<path d="M1608.28 1026.31L1604.93 1045.27C1604.66 1046.77 1605.67 1048.2 1607.17 1048.46L1626.2 1051.81C1627.7 1052.07 1629.13 1051.07 1629.39 1049.57L1632.75 1030.61C1633.02 1029.11 1632.01 1027.68 1630.51 1027.42L1611.48 1024.08C1609.98 1023.81 1608.55 1024.81 1608.28 1026.31Z" stroke="#D0D0D0" stroke-width="2"/>
<path d="M1984.83 771.483C1985.91 769.726 1988.47 769.726 1989.55 771.483L1999.81 788.217C2000.93 790.051 1999.61 792.403 1997.45 792.403H1976.93C1974.77 792.403 1973.45 790.051 1974.57 788.217L1984.83 771.483V771.483Z" stroke="#D0D0D0" stroke-width="2"/>
<path d="M2365.38 770.392C2373.01 770.392 2379.19 764.232 2379.19 756.635C2379.19 749.037 2373.01 742.877 2365.38 742.877C2357.76 742.877 2351.58 749.037 2351.58 756.635C2351.58 764.232 2357.76 770.392 2365.38 770.392Z" stroke="#D0D0D0" stroke-width="2"/>
<path d="M2134.88 829.548L2112.8 851.559M2134.88 851.559L2112.8 829.548L2134.88 851.559Z" stroke="#D0D0D0" stroke-width="2" stroke-linecap="round"/>
<path d="M2108.65 539.272H2089.33C2087.81 539.272 2086.57 540.504 2086.57 542.023V561.283C2086.57 562.803 2087.81 564.035 2089.33 564.035H2108.65C2110.18 564.035 2111.41 562.803 2111.41 561.283V542.023C2111.41 540.504 2110.18 539.272 2108.65 539.272Z" stroke="#D0D0D0" stroke-width="2"/>
<path d="M2084 1107C2082.45 1105.64 2082.89 1103.13 2084.81 1102.37L2103.13 1095.21C2105.14 1094.42 2107.23 1096.13 2106.86 1098.25L2103.29 1118.39C2102.92 1120.51 2100.36 1121.4 2098.75 1119.98L2084 1107V1107Z" stroke="#D0D0D0" stroke-width="2"/>
<path d="M2149 733.278C2150.32 725.795 2145.31 718.66 2137.8 717.341C2130.3 716.021 2123.14 721.017 2121.81 728.5C2120.49 735.982 2125.5 743.118 2133.01 744.437C2140.52 745.756 2147.67 740.76 2149 733.278Z" stroke="#D0D0D0" stroke-width="2"/>
<path d="M2167.42 969.804L2185.33 995.304M2189.17 973.627L2163.59 991.481L2189.17 973.627Z" stroke="#D0D0D0" stroke-width="2" stroke-linecap="round"/>
<path d="M1876.05 945.14L1872.7 964.107C1872.43 965.604 1873.44 967.031 1874.94 967.295L1893.97 970.639C1895.47 970.903 1896.9 969.904 1897.17 968.407L1900.52 949.44C1900.79 947.943 1899.78 946.516 1898.28 946.253L1879.25 942.908C1877.75 942.644 1876.32 943.643 1876.05 945.14Z" stroke="#D0D0D0" stroke-width="2"/>
<path d="M1337.27 1512.83C1335.72 1511.47 1336.16 1508.96 1338.09 1508.21L1356.4 1501.04C1358.41 1500.26 1360.5 1501.97 1360.13 1504.08L1356.57 1524.23C1356.19 1526.34 1353.64 1527.23 1352.02 1525.81L1337.27 1512.83V1512.83Z" stroke="#D0D0D0" stroke-width="2"/>
<path d="M1402.27 1139.11C1403.6 1131.63 1398.58 1124.5 1391.08 1123.18C1383.57 1121.86 1376.41 1126.85 1375.09 1134.34C1373.76 1141.82 1378.78 1148.95 1386.28 1150.27C1393.79 1151.59 1400.95 1146.6 1402.27 1139.11Z" stroke="#D0D0D0" stroke-width="2"/>
<path d="M1420.7 1375.64L1438.61 1401.14M1442.44 1379.46L1416.86 1397.32L1442.44 1379.46Z" stroke="#D0D0D0" stroke-width="2" stroke-linecap="round"/>
<path d="M1129.33 1350.98L1125.97 1369.94C1125.71 1371.44 1126.71 1372.87 1128.21 1373.13L1147.24 1376.47C1148.74 1376.74 1150.18 1375.74 1150.44 1374.24L1153.8 1355.28C1154.06 1353.78 1153.06 1352.35 1151.56 1352.09L1132.53 1348.74C1131.03 1348.48 1129.59 1349.48 1129.33 1350.98Z" stroke="#D0D0D0" stroke-width="2"/>
<path d="M844.513 544.33C842.964 542.968 843.408 540.457 845.331 539.705L863.647 532.54C865.654 531.755 867.749 533.462 867.375 535.579L863.811 555.722C863.437 557.838 860.883 558.728 859.266 557.306L844.513 544.33V544.33Z" stroke="#D0D0D0" stroke-width="2"/>
<path d="M909.516 170.609C910.84 163.126 905.827 155.991 898.32 154.672C890.813 153.352 883.654 158.349 882.33 165.831C881.007 173.313 886.019 180.449 893.527 181.768C901.034 183.087 908.193 178.091 909.516 170.609Z" stroke="#D0D0D0" stroke-width="2"/>
<path d="M927.939 407.135L945.853 432.635M949.688 410.957L924.104 428.812L949.688 410.957Z" stroke="#D0D0D0" stroke-width="2" stroke-linecap="round"/>
<path d="M636.572 382.471L633.217 401.438C632.952 402.935 633.955 404.362 635.456 404.626L654.486 407.97C655.988 408.234 657.419 407.235 657.684 405.738L661.04 386.771C661.305 385.274 660.302 383.847 658.801 383.583L639.77 380.239C638.269 379.975 636.837 380.974 636.572 382.471Z" stroke="#D0D0D0" stroke-width="2"/>
<path d="M1142.62 1198.94C1140.56 1198.94 1139.22 1196.77 1140.16 1194.94L1149.12 1177.47C1150.1 1175.56 1152.8 1175.45 1153.93 1177.29L1164.65 1194.73C1165.78 1196.56 1164.46 1198.91 1162.3 1198.92L1142.62 1198.94V1198.94Z" stroke="#D0D0D0" stroke-width="2"/>
<path d="M942.854 876.108C938.871 869.63 930.373 867.596 923.873 871.566C917.374 875.536 915.334 884.006 919.317 890.484C923.3 896.962 931.797 898.996 938.297 895.026C944.797 891.056 946.837 882.586 942.854 876.108Z" stroke="#D0D0D0" stroke-width="2"/>
<path d="M1113.9 1041.09L1144.27 1048.36M1132.73 1029.59L1125.44 1059.86L1132.73 1029.59Z" stroke="#D0D0D0" stroke-width="2" stroke-linecap="round"/>
<path d="M879.281 1215.04L889.377 1231.47C890.174 1232.76 891.874 1233.17 893.173 1232.37L909.65 1222.31C910.95 1221.52 911.358 1219.82 910.561 1218.53L900.464 1202.11C899.668 1200.81 897.968 1200.4 896.668 1201.2L880.192 1211.26C878.892 1212.05 878.484 1213.75 879.281 1215.04Z" stroke="#D0D0D0" stroke-width="2"/>
<path d="M170.801 1087.46C171.878 1085.71 174.437 1085.71 175.514 1087.46L185.773 1104.2C186.898 1106.03 185.574 1108.38 183.418 1108.38H162.897C160.741 1108.38 159.418 1106.03 160.542 1104.2L170.801 1087.46V1087.46Z" stroke="#D0D0D0" stroke-width="2"/>
<path d="M551.351 1086.37C558.974 1086.37 565.154 1080.21 565.154 1072.61C565.154 1065.02 558.974 1058.86 551.351 1058.86C543.728 1058.86 537.549 1065.02 537.549 1072.61C537.549 1080.21 543.728 1086.37 551.351 1086.37Z" stroke="#D0D0D0" stroke-width="2"/>
<path d="M320.846 1145.53L298.762 1167.54M320.846 1167.54L298.762 1145.53L320.846 1167.54Z" stroke="#D0D0D0" stroke-width="2" stroke-linecap="round"/>
<path d="M294.621 855.251H275.297C273.773 855.251 272.537 856.483 272.537 858.002V877.262C272.537 878.782 273.773 880.014 275.297 880.014H294.621C296.146 880.014 297.381 878.782 297.381 877.262V858.002C297.381 856.483 296.146 855.251 294.621 855.251Z" stroke="#D0D0D0" stroke-width="2"/>
<path d="M558.135 719.574C559.076 721.406 557.738 723.581 555.673 723.578L535.997 723.553C533.84 723.551 532.52 721.197 533.646 719.365L544.369 701.925C545.495 700.093 548.199 700.198 549.18 702.111L558.135 719.574V719.574Z" stroke="#D0D0D0" stroke-width="2"/>
<path d="M360.232 1043.54C356.249 1050.02 358.289 1058.49 364.788 1062.46C371.288 1066.43 379.786 1064.4 383.769 1057.92C387.752 1051.44 385.712 1042.97 379.212 1039C372.712 1035.03 364.215 1037.07 360.232 1043.54Z" stroke="#D0D0D0" stroke-width="2"/>
<path d="M430.064 816.747L422.773 786.478M411.235 805.246L441.603 797.979L411.235 805.246Z" stroke="#D0D0D0" stroke-width="2" stroke-linecap="round"/>
<path d="M692.087 946.129L702.184 929.707C702.981 928.411 702.573 926.717 701.273 925.923L684.796 915.86C683.496 915.066 681.797 915.473 681 916.768L670.904 933.19C670.107 934.486 670.515 936.18 671.815 936.974L688.291 947.037C689.591 947.831 691.291 947.424 692.087 946.129Z" stroke="#D0D0D0" stroke-width="2"/>
<path d="M1702.85 710.801C1701.3 709.439 1701.74 706.927 1703.67 706.175L1721.98 699.011C1723.99 698.225 1726.08 699.933 1725.71 702.049L1722.15 722.192C1721.77 724.309 1719.22 725.198 1717.6 723.777L1702.85 710.801V710.801Z" stroke="#D0D0D0" stroke-width="2"/>
<path d="M1767.85 337.079C1769.18 329.597 1764.16 322.461 1756.66 321.142C1749.15 319.823 1741.99 324.819 1740.67 332.301C1739.34 339.784 1744.36 346.919 1751.86 348.238C1759.37 349.558 1766.53 344.562 1767.85 337.079Z" stroke="#D0D0D0" stroke-width="2"/>
<path d="M1786.27 573.606L1804.19 599.105M1808.02 577.428L1782.44 595.283L1808.02 577.428Z" stroke="#D0D0D0" stroke-width="2" stroke-linecap="round"/>
<path d="M1494.91 548.941L1491.55 567.909C1491.29 569.405 1492.29 570.832 1493.79 571.096L1512.82 574.441C1514.32 574.704 1515.76 573.705 1516.02 572.209L1519.38 553.241C1519.64 551.745 1518.64 550.318 1517.14 550.054L1498.11 546.709C1496.6 546.445 1495.17 547.445 1494.91 548.941Z" stroke="#D0D0D0" stroke-width="2"/>
<path d="M1631 1190.88C1629.45 1189.51 1629.9 1187 1631.82 1186.25L1650.14 1179.09C1652.14 1178.3 1654.24 1180.01 1653.87 1182.12L1650.3 1202.27C1649.93 1204.38 1647.37 1205.27 1645.76 1203.85L1631 1190.88V1190.88Z" stroke="#D0D0D0" stroke-width="2"/>
<path d="M1696.01 817.154C1697.33 809.671 1692.32 802.536 1684.81 801.217C1677.3 799.897 1670.14 804.894 1668.82 812.376C1667.5 819.859 1672.51 826.994 1680.02 828.313C1687.52 829.633 1694.68 824.636 1696.01 817.154Z" stroke="#D0D0D0" stroke-width="2"/>
<path d="M1714.43 1053.68L1732.34 1079.18M1736.18 1057.5L1710.59 1075.36L1736.18 1057.5Z" stroke="#D0D0D0" stroke-width="2" stroke-linecap="round"/>
<path d="M1423.06 1029.02L1419.71 1047.98C1419.44 1049.48 1420.45 1050.91 1421.95 1051.17L1440.98 1054.52C1442.48 1054.78 1443.91 1053.78 1444.17 1052.28L1447.53 1033.32C1447.8 1031.82 1446.79 1030.39 1445.29 1030.13L1426.26 1026.78C1424.76 1026.52 1423.33 1027.52 1423.06 1029.02Z" stroke="#D0D0D0" stroke-width="2"/>
<defs>
<filter id="filter0_i_105_12" x="0.390442" y="0" width="2400" height="1540.18" filterUnits="userSpaceOnUse" color-interpolation-filters="sRGB">
<feFlood flood-opacity="0" result="BackgroundImageFix"/>
<feBlend mode="normal" in="SourceGraphic" in2="BackgroundImageFix" result="shape"/>
<feColorMatrix in="SourceAlpha" type="matrix" values="0 0 0 0 0 0 0 0 0 0 0 0 0 0 0 0 0 0 127 0" result="hardAlpha"/>
<feOffset/>
<feGaussianBlur stdDeviation="12"/>
<feComposite in2="hardAlpha" operator="arithmetic" k2="-1" k3="1"/>
<feColorMatrix type="matrix" values="0 0 0 0 0 0 0 0 0 0 0 0 0 0 0 0 0 0 0.15 0"/>
<feBlend mode="normal" in2="shape" result="effect1_innerShadow_105_12"/>
</filter>
<linearGradient id="paint0_linear_105_12" x1="0.390511" y1="4.41665e-05" x2="2541.94" y2="1253.09" gradientUnits="userSpaceOnUse">
<stop stop-color="white"/>
<stop offset="1" stop-color="#D7E1EC"/>
</linearGradient>
</defs>
</svg>
