<svg width="1000" height="420" viewBox="0 0 1000 420" fill="none" xmlns="http://www.w3.org/2000/svg">
<rect width="1000" height="420" fill="url(#paint0_linear_18_7)"/>
<path d="M815.564 85.68C705.638 75.6 648.274 24.36 633.333 0H1000V120.12C974.772 112.84 902.565 95.76 815.564 85.68Z" fill="url(#paint1_linear_18_7)"/>
<path d="M95.6268 334.821C26.473 311.323 88.0631 289.783 0 272.16V420H438.695C441.216 419.347 437.614 414.125 403.037 398.46C276.075 367.13 287.961 387.691 224.75 384.753C161.539 381.816 189.093 344.611 95.6268 334.821Z" fill="url(#paint2_linear_18_7)"/>
<g filter="url(#filter0_d_18_7)">
<path d="M117.35 188C116.727 188 116.245 187.83 115.905 187.49C115.565 187.093 115.395 186.612 115.395 186.045V130.54C115.395 129.917 115.565 129.435 115.905 129.095C116.245 128.698 116.727 128.5 117.35 128.5H136.645C142.482 128.5 147.185 129.378 150.755 131.135C154.325 132.892 156.932 135.498 158.575 138.955C160.218 142.355 161.068 146.548 161.125 151.535C161.182 154.085 161.21 156.323 161.21 158.25C161.21 160.177 161.182 162.387 161.125 164.88C161.012 170.093 160.133 174.428 158.49 177.885C156.903 181.285 154.353 183.835 150.84 185.535C147.383 187.178 142.793 188 137.07 188H117.35ZM123.725 180.775H136.645C140.555 180.775 143.672 180.237 145.995 179.16C148.318 178.083 149.99 176.355 151.01 173.975C152.087 171.595 152.653 168.45 152.71 164.54C152.823 162.84 152.88 161.367 152.88 160.12C152.88 158.817 152.88 157.542 152.88 156.295C152.88 154.992 152.823 153.518 152.71 151.875C152.597 146.378 151.293 142.327 148.8 139.72C146.307 137.057 142.113 135.725 136.22 135.725H123.725V180.775ZM190.489 188.85C184.652 188.85 180.005 187.065 176.549 183.495C173.092 179.868 171.194 174.938 170.854 168.705C170.797 167.968 170.769 167.033 170.769 165.9C170.769 164.71 170.797 163.747 170.854 163.01C171.08 158.987 172.015 155.473 173.659 152.47C175.302 149.41 177.54 147.058 180.374 145.415C183.264 143.772 186.635 142.95 190.489 142.95C194.795 142.95 198.394 143.857 201.284 145.67C204.23 147.483 206.469 150.062 207.999 153.405C209.529 156.748 210.294 160.658 210.294 165.135V166.58C210.294 167.203 210.095 167.685 209.699 168.025C209.359 168.365 208.905 168.535 208.339 168.535H178.929C178.929 168.592 178.929 168.705 178.929 168.875C178.929 169.045 178.929 169.187 178.929 169.3C179.042 171.623 179.552 173.805 180.459 175.845C181.365 177.828 182.669 179.443 184.369 180.69C186.069 181.937 188.109 182.56 190.489 182.56C192.529 182.56 194.229 182.248 195.589 181.625C196.949 181.002 198.054 180.322 198.904 179.585C199.754 178.792 200.32 178.197 200.604 177.8C201.114 177.063 201.51 176.638 201.794 176.525C202.077 176.355 202.53 176.27 203.154 176.27H207.234C207.8 176.27 208.254 176.44 208.594 176.78C208.99 177.063 209.16 177.488 209.104 178.055C209.047 178.905 208.594 179.953 207.744 181.2C206.894 182.39 205.675 183.58 204.089 184.77C202.502 185.96 200.575 186.952 198.309 187.745C196.042 188.482 193.435 188.85 190.489 188.85ZM178.929 162.67H202.219V162.415C202.219 159.865 201.737 157.598 200.774 155.615C199.867 153.632 198.535 152.073 196.779 150.94C195.022 149.75 192.925 149.155 190.489 149.155C188.052 149.155 185.955 149.75 184.199 150.94C182.499 152.073 181.195 153.632 180.289 155.615C179.382 157.598 178.929 159.865 178.929 162.415V162.67ZM234.348 188C233.498 188 232.818 187.802 232.308 187.405C231.855 187.008 231.486 186.498 231.203 185.875L215.478 146.435C215.365 146.152 215.308 145.868 215.308 145.585C215.308 145.075 215.478 144.65 215.818 144.31C216.158 143.97 216.583 143.8 217.093 143.8H221.173C221.796 143.8 222.278 143.97 222.618 144.31C222.958 144.65 223.156 144.962 223.213 145.245L236.218 178.735L249.138 145.245C249.251 144.962 249.45 144.65 249.733 144.31C250.073 143.97 250.555 143.8 251.178 143.8H255.343C255.796 143.8 256.193 143.97 256.533 144.31C256.93 144.65 257.128 145.075 257.128 145.585C257.128 145.868 257.071 146.152 256.958 146.435L241.148 185.875C240.921 186.498 240.553 187.008 240.043 187.405C239.59 187.802 238.91 188 238.003 188H234.348ZM288.468 188.85C283.652 188.85 279.515 188.028 276.058 186.385C272.602 184.685 269.938 182.107 268.068 178.65C266.198 175.137 265.15 170.745 264.923 165.475C264.867 162.982 264.838 160.602 264.838 158.335C264.838 156.012 264.867 153.603 264.923 151.11C265.15 145.897 266.227 141.562 268.153 138.105C270.137 134.592 272.857 131.985 276.313 130.285C279.827 128.528 283.878 127.65 288.468 127.65C293.115 127.65 297.167 128.528 300.623 130.285C304.137 131.985 306.885 134.592 308.868 138.105C310.852 141.562 311.928 145.897 312.098 151.11C312.212 153.603 312.268 156.012 312.268 158.335C312.268 160.602 312.212 162.982 312.098 165.475C311.928 170.745 310.88 175.137 308.953 178.65C307.083 182.107 304.42 184.685 300.963 186.385C297.507 188.028 293.342 188.85 288.468 188.85ZM288.468 181.625C292.832 181.625 296.373 180.322 299.093 177.715C301.87 175.108 303.372 170.887 303.598 165.05C303.712 162.5 303.768 160.233 303.768 158.25C303.768 156.21 303.712 153.943 303.598 151.45C303.485 147.54 302.748 144.367 301.388 141.93C300.085 139.493 298.328 137.708 296.118 136.575C293.908 135.442 291.358 134.875 288.468 134.875C285.692 134.875 283.198 135.442 280.988 136.575C278.778 137.708 276.993 139.493 275.633 141.93C274.33 144.367 273.593 147.54 273.423 151.45C273.367 153.943 273.338 156.21 273.338 158.25C273.338 160.233 273.367 162.5 273.423 165.05C273.65 170.887 275.152 175.108 277.928 177.715C280.705 180.322 284.218 181.625 288.468 181.625ZM325.593 204.15C325.026 204.15 324.544 203.952 324.148 203.555C323.808 203.215 323.638 202.762 323.638 202.195V145.755C323.638 145.188 323.808 144.735 324.148 144.395C324.544 143.998 325.026 143.8 325.593 143.8H329.503C330.069 143.8 330.523 143.998 330.863 144.395C331.259 144.735 331.458 145.188 331.458 145.755V149.495C332.818 147.625 334.631 146.067 336.898 144.82C339.164 143.573 341.998 142.95 345.398 142.95C348.571 142.95 351.263 143.488 353.473 144.565C355.739 145.642 357.581 147.115 358.998 148.985C360.471 150.855 361.576 152.98 362.313 155.36C363.049 157.74 363.446 160.29 363.503 163.01C363.559 163.917 363.588 164.88 363.588 165.9C363.588 166.92 363.559 167.883 363.503 168.79C363.446 171.453 363.049 174.003 362.313 176.44C361.576 178.82 360.471 180.945 358.998 182.815C357.581 184.628 355.739 186.102 353.473 187.235C351.263 188.312 348.571 188.85 345.398 188.85C342.111 188.85 339.334 188.255 337.068 187.065C334.858 185.818 333.044 184.288 331.628 182.475V202.195C331.628 202.762 331.458 203.215 331.118 203.555C330.778 203.952 330.296 204.15 329.673 204.15H325.593ZM343.613 181.965C346.559 181.965 348.854 181.342 350.498 180.095C352.198 178.792 353.416 177.12 354.153 175.08C354.889 172.983 355.314 170.745 355.428 168.365C355.484 166.722 355.484 165.078 355.428 163.435C355.314 161.055 354.889 158.845 354.153 156.805C353.416 154.708 352.198 153.037 350.498 151.79C348.854 150.487 346.559 149.835 343.613 149.835C340.836 149.835 338.569 150.487 336.813 151.79C335.113 153.093 333.838 154.765 332.988 156.805C332.194 158.788 331.741 160.828 331.628 162.925C331.571 163.832 331.543 164.908 331.543 166.155C331.543 167.402 331.571 168.507 331.628 169.47C331.684 171.453 332.138 173.408 332.988 175.335C333.894 177.262 335.226 178.848 336.983 180.095C338.739 181.342 340.949 181.965 343.613 181.965ZM389.487 188.85C386.314 188.85 383.594 188.453 381.327 187.66C379.061 186.867 377.219 185.903 375.802 184.77C374.386 183.637 373.309 182.503 372.572 181.37C371.892 180.237 371.524 179.33 371.467 178.65C371.411 178.027 371.609 177.545 372.062 177.205C372.516 176.865 372.969 176.695 373.422 176.695H377.162C377.502 176.695 377.757 176.752 377.927 176.865C378.154 176.922 378.437 177.148 378.777 177.545C379.514 178.338 380.336 179.132 381.242 179.925C382.149 180.718 383.254 181.37 384.557 181.88C385.917 182.39 387.589 182.645 389.572 182.645C392.462 182.645 394.842 182.107 396.712 181.03C398.582 179.897 399.517 178.253 399.517 176.1C399.517 174.683 399.121 173.55 398.327 172.7C397.591 171.85 396.231 171.085 394.247 170.405C392.321 169.725 389.657 169.017 386.257 168.28C382.857 167.487 380.166 166.523 378.182 165.39C376.199 164.2 374.782 162.812 373.932 161.225C373.082 159.582 372.657 157.74 372.657 155.7C372.657 153.603 373.281 151.592 374.527 149.665C375.774 147.682 377.587 146.067 379.967 144.82C382.404 143.573 385.436 142.95 389.062 142.95C392.009 142.95 394.531 143.318 396.627 144.055C398.724 144.792 400.452 145.727 401.812 146.86C403.172 147.937 404.192 149.013 404.872 150.09C405.552 151.167 405.921 152.073 405.977 152.81C406.034 153.377 405.864 153.858 405.467 154.255C405.071 154.595 404.617 154.765 404.107 154.765H400.537C400.141 154.765 399.801 154.68 399.517 154.51C399.291 154.34 399.064 154.142 398.837 153.915C398.271 153.178 397.591 152.442 396.797 151.705C396.061 150.968 395.069 150.373 393.822 149.92C392.632 149.41 391.046 149.155 389.062 149.155C386.229 149.155 384.104 149.75 382.687 150.94C381.271 152.13 380.562 153.632 380.562 155.445C380.562 156.522 380.874 157.485 381.497 158.335C382.121 159.185 383.311 159.95 385.067 160.63C386.824 161.31 389.431 162.047 392.887 162.84C396.627 163.577 399.574 164.568 401.727 165.815C403.881 167.062 405.411 168.507 406.317 170.15C407.224 171.793 407.677 173.692 407.677 175.845C407.677 178.225 406.969 180.407 405.552 182.39C404.192 184.373 402.152 185.96 399.432 187.15C396.769 188.283 393.454 188.85 389.487 188.85Z" fill="black"/>
</g>
<g filter="url(#filter1_d_18_7)">
<path d="M129.675 290.85C124.745 290.85 120.722 290.113 117.605 288.64C114.488 287.167 112.222 285.212 110.805 282.775C109.445 280.338 108.963 277.76 109.36 275.04C109.417 274.587 109.615 274.19 109.955 273.85C110.295 273.453 110.72 273.255 111.23 273.255H115.905C116.528 273.255 116.953 273.425 117.18 273.765C117.463 274.105 117.662 274.502 117.775 274.955C117.775 276.315 118.172 277.675 118.965 279.035C119.815 280.338 121.118 281.443 122.875 282.35C124.688 283.2 127.068 283.625 130.015 283.625C134.888 283.625 138.713 282.775 141.49 281.075C144.267 279.318 145.967 276.995 146.59 274.105C147.043 272.122 146.788 270.535 145.825 269.345C144.862 268.098 143.218 266.993 140.895 266.03C138.628 265.067 135.625 264.018 131.885 262.885C128.032 261.695 124.915 260.335 122.535 258.805C120.155 257.275 118.54 255.405 117.69 253.195C116.84 250.928 116.755 248.18 117.435 244.95C118.455 240.36 120.948 236.677 124.915 233.9C128.882 231.067 134.123 229.65 140.64 229.65C144.097 229.65 147.072 230.132 149.565 231.095C152.058 232.002 154.098 233.248 155.685 234.835C157.272 236.365 158.348 238.037 158.915 239.85C159.538 241.607 159.708 243.335 159.425 245.035C159.368 245.432 159.198 245.828 158.915 246.225C158.632 246.565 158.178 246.735 157.555 246.735H152.71C152.37 246.735 152.002 246.622 151.605 246.395C151.208 246.168 150.982 245.743 150.925 245.12C151.095 242.797 150.188 240.842 148.205 239.255C146.222 237.668 143.587 236.875 140.3 236.875C136.617 236.875 133.415 237.583 130.695 239C128.032 240.417 126.36 242.627 125.68 245.63C125.283 247.557 125.482 249.172 126.275 250.475C127.068 251.722 128.513 252.827 130.61 253.79C132.707 254.753 135.54 255.773 139.11 256.85C143.36 258.097 146.76 259.485 149.31 261.015C151.86 262.545 153.617 264.415 154.58 266.625C155.543 268.778 155.657 271.47 154.92 274.7C153.843 280.027 151.095 284.05 146.675 286.77C142.312 289.49 136.645 290.85 129.675 290.85ZM163.685 290C163.118 290 162.665 289.83 162.325 289.49C162.042 289.093 161.957 288.612 162.07 288.045L170.655 247.755C170.768 247.188 171.052 246.735 171.505 246.395C171.958 245.998 172.468 245.8 173.035 245.8H177.115C177.682 245.8 178.078 245.998 178.305 246.395C178.588 246.735 178.673 247.188 178.56 247.755L170.06 288.045C169.947 288.612 169.663 289.093 169.21 289.49C168.813 289.83 168.332 290 167.765 290H163.685ZM174.14 237.555C173.573 237.555 173.148 237.385 172.865 237.045C172.582 236.648 172.468 236.167 172.525 235.6L173.63 231.01C173.743 230.443 173.998 229.99 174.395 229.65C174.848 229.253 175.358 229.055 175.925 229.055H181.195C181.818 229.055 182.272 229.253 182.555 229.65C182.895 229.99 183.008 230.443 182.895 231.01L181.875 235.6C181.762 236.167 181.478 236.648 181.025 237.045C180.572 237.385 180.062 237.555 179.495 237.555H174.14ZM184.354 290C183.787 290 183.334 289.83 182.994 289.49C182.711 289.093 182.626 288.612 182.739 288.045L191.324 247.755C191.437 247.188 191.721 246.735 192.174 246.395C192.627 245.998 193.137 245.8 193.704 245.8H197.529C198.096 245.8 198.521 245.998 198.804 246.395C199.087 246.735 199.172 247.188 199.059 247.755L198.464 250.73C199.597 249.54 200.731 248.52 201.864 247.67C203.054 246.82 204.386 246.168 205.859 245.715C207.332 245.205 209.061 244.95 211.044 244.95C214.274 244.95 216.994 245.63 219.204 246.99C221.414 248.293 222.887 250.22 223.624 252.77C225.437 250.39 227.562 248.492 229.999 247.075C232.492 245.658 235.382 244.95 238.669 244.95C241.672 244.95 244.279 245.63 246.489 246.99C248.756 248.35 250.342 250.418 251.249 253.195C252.212 255.915 252.269 259.343 251.419 263.48L246.149 288.045C246.036 288.612 245.752 289.093 245.299 289.49C244.902 289.83 244.421 290 243.854 290H239.859C239.292 290 238.867 289.83 238.584 289.49C238.301 289.093 238.216 288.612 238.329 288.045L243.344 264.245C244.024 261.072 244.166 258.578 243.769 256.765C243.372 254.952 242.522 253.677 241.219 252.94C239.972 252.203 238.471 251.835 236.714 251.835C235.184 251.835 233.512 252.203 231.699 252.94C229.942 253.677 228.299 254.952 226.769 256.765C225.296 258.578 224.219 261.072 223.539 264.245L218.439 288.045C218.326 288.612 218.042 289.093 217.589 289.49C217.192 289.83 216.711 290 216.144 290H212.149C211.582 290 211.129 289.83 210.789 289.49C210.506 289.093 210.421 288.612 210.534 288.045L215.634 264.245C216.314 261.072 216.427 258.578 215.974 256.765C215.521 254.952 214.671 253.677 213.424 252.94C212.177 252.203 210.676 251.835 208.919 251.835C207.446 251.835 205.802 252.203 203.989 252.94C202.232 253.677 200.589 254.952 199.059 256.765C197.586 258.578 196.509 261.043 195.829 264.16L190.729 288.045C190.616 288.612 190.332 289.093 189.879 289.49C189.482 289.83 189.001 290 188.434 290H184.354ZM256.574 306.15C256.007 306.15 255.582 305.952 255.299 305.555C254.959 305.215 254.846 304.762 254.959 304.195L267.029 247.755C267.142 247.188 267.397 246.735 267.794 246.395C268.247 245.998 268.757 245.8 269.324 245.8H273.234C273.801 245.8 274.226 245.998 274.509 246.395C274.792 246.735 274.877 247.188 274.764 247.755L273.999 251.495C275.812 249.625 277.796 248.067 279.949 246.82C282.102 245.573 284.992 244.95 288.619 244.95C291.736 244.95 294.342 245.517 296.439 246.65C298.536 247.727 300.122 249.228 301.199 251.155C302.332 253.025 303.041 255.178 303.324 257.615C303.664 260.052 303.607 262.63 303.154 265.35C303.041 266.257 302.871 267.107 302.644 267.9C302.474 268.693 302.276 269.543 302.049 270.45C301.369 273.057 300.434 275.578 299.244 278.015C298.111 280.452 296.637 282.662 294.824 284.645C293.067 286.572 290.942 288.102 288.449 289.235C286.012 290.312 283.179 290.85 279.949 290.85C276.492 290.85 273.744 290.255 271.704 289.065C269.664 287.818 268.191 286.288 267.284 284.475L263.034 304.195C262.921 304.762 262.637 305.215 262.184 305.555C261.787 305.952 261.277 306.15 260.654 306.15H256.574ZM279.099 283.965C281.819 283.965 284.142 283.342 286.069 282.095C288.052 280.792 289.667 279.12 290.914 277.08C292.217 274.983 293.209 272.745 293.889 270.365C294.172 269.515 294.399 268.693 294.569 267.9C294.739 267.107 294.881 266.285 294.994 265.435C295.334 263.055 295.362 260.845 295.079 258.805C294.852 256.708 294.087 255.037 292.784 253.79C291.537 252.487 289.554 251.835 286.834 251.835C284.001 251.835 281.507 252.487 279.354 253.79C277.257 255.093 275.529 256.765 274.169 258.805C272.809 260.788 271.874 262.828 271.364 264.925C271.137 265.832 270.882 266.908 270.599 268.155C270.372 269.402 270.174 270.507 270.004 271.47C269.664 273.453 269.664 275.408 270.004 277.335C270.401 279.262 271.336 280.848 272.809 282.095C274.282 283.342 276.379 283.965 279.099 283.965ZM310.443 290C309.876 290 309.423 289.83 309.083 289.49C308.799 289.093 308.714 288.612 308.828 288.045L320.898 231.605C321.011 231.038 321.266 230.585 321.663 230.245C322.116 229.848 322.626 229.65 323.193 229.65H327.273C327.839 229.65 328.264 229.848 328.548 230.245C328.831 230.585 328.916 231.038 328.803 231.605L316.818 288.045C316.704 288.612 316.421 289.093 315.968 289.49C315.571 289.83 315.089 290 314.523 290H310.443ZM331.195 290C330.628 290 330.175 289.83 329.835 289.49C329.551 289.093 329.466 288.612 329.58 288.045L338.165 247.755C338.278 247.188 338.561 246.735 339.015 246.395C339.468 245.998 339.978 245.8 340.545 245.8H344.625C345.191 245.8 345.588 245.998 345.815 246.395C346.098 246.735 346.183 247.188 346.07 247.755L337.57 288.045C337.456 288.612 337.173 289.093 336.72 289.49C336.323 289.83 335.841 290 335.275 290H331.195ZM341.65 237.555C341.083 237.555 340.658 237.385 340.375 237.045C340.091 236.648 339.978 236.167 340.035 235.6L341.14 231.01C341.253 230.443 341.508 229.99 341.905 229.65C342.358 229.253 342.868 229.055 343.435 229.055H348.705C349.328 229.055 349.781 229.253 350.065 229.65C350.405 229.99 350.518 230.443 350.405 231.01L349.385 235.6C349.271 236.167 348.988 236.648 348.535 237.045C348.081 237.385 347.571 237.555 347.005 237.555H341.65ZM356.114 290C355.547 290 355.094 289.83 354.754 289.49C354.47 289.093 354.385 288.612 354.499 288.045L362.064 252.6H354.839C354.272 252.6 353.847 252.43 353.564 252.09C353.28 251.693 353.195 251.212 353.309 250.645L353.904 247.755C354.017 247.188 354.3 246.735 354.754 246.395C355.207 245.998 355.717 245.8 356.284 245.8H363.509L364.444 241.55C365.067 238.66 366.087 236.138 367.504 233.985C368.977 231.775 370.847 230.075 373.114 228.885C375.437 227.695 378.185 227.1 381.359 227.1H395.214C395.78 227.1 396.177 227.298 396.404 227.695C396.687 228.035 396.772 228.488 396.659 229.055L396.064 231.945C395.95 232.512 395.667 232.993 395.214 233.39C394.76 233.73 394.25 233.9 393.684 233.9H381.274C378.61 233.9 376.542 234.608 375.069 236.025C373.652 237.385 372.689 239.368 372.179 241.975L371.329 245.8H391.219C391.785 245.8 392.182 245.998 392.409 246.395C392.692 246.735 392.777 247.188 392.664 247.755L384.164 288.045C384.05 288.612 383.767 289.093 383.314 289.49C382.917 289.83 382.435 290 381.869 290H377.874C377.307 290 376.854 289.83 376.514 289.49C376.23 289.093 376.145 288.612 376.259 288.045L383.739 252.6H369.969L362.404 288.045C362.29 288.612 362.007 289.093 361.554 289.49C361.157 289.83 360.675 290 360.109 290H356.114ZM415.006 290.85C411.153 290.85 407.951 290.028 405.401 288.385C402.908 286.742 401.179 284.418 400.216 281.415C399.253 278.355 399.054 274.785 399.621 270.705C399.734 269.968 399.904 269.033 400.131 267.9C400.414 266.71 400.669 265.747 400.896 265.01C402.029 260.987 403.701 257.473 405.911 254.47C408.178 251.41 410.926 249.058 414.156 247.415C417.386 245.772 420.928 244.95 424.781 244.95C429.088 244.95 432.488 245.857 434.981 247.67C437.474 249.483 439.146 252.062 439.996 255.405C440.846 258.748 440.818 262.658 439.911 267.135L439.571 268.58C439.458 269.203 439.146 269.685 438.636 270.025C438.183 270.365 437.673 270.535 437.106 270.535H407.781C407.781 270.592 407.753 270.705 407.696 270.875C407.696 271.045 407.668 271.187 407.611 271.3C407.271 273.623 407.328 275.805 407.781 277.845C408.234 279.828 409.169 281.443 410.586 282.69C412.059 283.937 413.986 284.56 416.366 284.56C418.406 284.56 420.163 284.248 421.636 283.625C423.166 283.002 424.413 282.322 425.376 281.585C426.339 280.792 427.019 280.197 427.416 279.8C428.096 279.063 428.578 278.638 428.861 278.525C429.201 278.355 429.711 278.27 430.391 278.27H434.471C434.981 278.27 435.378 278.44 435.661 278.78C435.944 279.063 436.029 279.488 435.916 280.055C435.689 280.905 435.009 281.953 433.876 283.2C432.799 284.39 431.326 285.58 429.456 286.77C427.643 287.96 425.518 288.952 423.081 289.745C420.644 290.482 417.953 290.85 415.006 290.85ZM409.056 264.67H432.261L432.346 264.415C433.026 261.865 433.083 259.598 432.516 257.615C432.006 255.632 430.986 254.073 429.456 252.94C427.926 251.75 425.943 251.155 423.506 251.155C421.069 251.155 418.888 251.75 416.961 252.94C415.034 254.073 413.391 255.632 412.031 257.615C410.728 259.598 409.764 261.865 409.141 264.415L409.056 264.67ZM460.449 290.85C457.332 290.85 454.725 290.312 452.629 289.235C450.532 288.102 448.917 286.6 447.784 284.73C446.65 282.803 445.942 280.622 445.659 278.185C445.375 275.748 445.432 273.17 445.829 270.45C445.999 269.543 446.169 268.693 446.339 267.9C446.509 267.107 446.707 266.257 446.934 265.35C447.614 262.687 448.549 260.165 449.739 257.785C450.929 255.348 452.402 253.167 454.159 251.24C455.915 249.257 458.012 247.727 460.449 246.65C462.942 245.517 465.804 244.95 469.034 244.95C472.547 244.95 475.295 245.545 477.279 246.735C479.319 247.925 480.82 249.398 481.784 251.155L486.034 231.605C486.147 231.038 486.402 230.585 486.799 230.245C487.252 229.848 487.762 229.65 488.329 229.65H492.409C493.032 229.65 493.485 229.848 493.769 230.245C494.052 230.585 494.137 231.038 494.024 231.605L481.954 288.045C481.84 288.612 481.585 289.093 481.189 289.49C480.792 289.83 480.282 290 479.659 290H475.834C475.267 290 474.814 289.83 474.474 289.49C474.19 289.093 474.105 288.612 474.219 288.045L474.984 284.475C473.227 286.288 471.244 287.818 469.034 289.065C466.88 290.255 464.019 290.85 460.449 290.85ZM462.149 283.965C464.982 283.965 467.475 283.313 469.629 282.01C471.782 280.707 473.51 279.063 474.814 277.08C476.174 275.04 477.109 272.972 477.619 270.875C477.902 269.968 478.157 268.892 478.384 267.645C478.667 266.342 478.894 265.237 479.064 264.33C479.46 262.347 479.432 260.392 478.979 258.465C478.582 256.538 477.647 254.952 476.174 253.705C474.757 252.458 472.66 251.835 469.884 251.835C467.22 251.835 464.897 252.487 462.914 253.79C460.987 255.037 459.372 256.708 458.069 258.805C456.822 260.845 455.83 263.055 455.094 265.435C454.867 266.285 454.669 267.107 454.499 267.9C454.329 268.693 454.187 269.515 454.074 270.365C453.734 272.745 453.677 274.983 453.904 277.08C454.187 279.12 454.952 280.792 456.199 282.095C457.502 283.342 459.485 283.965 462.149 283.965Z" fill="#EBFF00"/>
</g>
<path d="M113.3 362C113.08 362 112.91 361.94 112.79 361.82C112.67 361.68 112.61 361.51 112.61 361.31V341.72C112.61 341.5 112.67 341.33 112.79 341.21C112.91 341.07 113.08 341 113.3 341H125.54C125.76 341 125.93 341.07 126.05 341.21C126.17 341.33 126.23 341.5 126.23 341.72V342.92C126.23 343.14 126.17 343.31 126.05 343.43C125.93 343.55 125.76 343.61 125.54 343.61H115.52V350.6H124.94C125.16 350.6 125.33 350.67 125.45 350.81C125.57 350.93 125.63 351.1 125.63 351.32V352.52C125.63 352.72 125.57 352.89 125.45 353.03C125.33 353.15 125.16 353.21 124.94 353.21H115.52V361.31C115.52 361.51 115.45 361.68 115.31 361.82C115.19 361.94 115.02 362 114.8 362H113.3ZM135.807 362.3C134.287 362.3 133.017 362.01 131.997 361.43C130.977 360.85 130.197 360.05 129.657 359.03C129.117 357.99 128.817 356.81 128.757 355.49C128.737 355.15 128.727 354.72 128.727 354.2C128.727 353.66 128.737 353.23 128.757 352.91C128.817 351.57 129.117 350.39 129.657 349.37C130.217 348.35 131.007 347.55 132.027 346.97C133.047 346.39 134.307 346.1 135.807 346.1C137.307 346.1 138.567 346.39 139.587 346.97C140.607 347.55 141.387 348.35 141.927 349.37C142.487 350.39 142.797 351.57 142.857 352.91C142.877 353.23 142.887 353.66 142.887 354.2C142.887 354.72 142.877 355.15 142.857 355.49C142.797 356.81 142.497 357.99 141.957 359.03C141.417 360.05 140.637 360.85 139.617 361.43C138.597 362.01 137.327 362.3 135.807 362.3ZM135.807 359.99C137.047 359.99 138.037 359.6 138.777 358.82C139.517 358.02 139.917 356.86 139.977 355.34C139.997 355.04 140.007 354.66 140.007 354.2C140.007 353.74 139.997 353.36 139.977 353.06C139.917 351.54 139.517 350.39 138.777 349.61C138.037 348.81 137.047 348.41 135.807 348.41C134.567 348.41 133.567 348.81 132.807 349.61C132.067 350.39 131.677 351.54 131.637 353.06C131.617 353.36 131.607 353.74 131.607 354.2C131.607 354.66 131.617 355.04 131.637 355.34C131.677 356.86 132.067 358.02 132.807 358.82C133.567 359.6 134.567 359.99 135.807 359.99ZM147.334 362C147.134 362 146.964 361.94 146.824 361.82C146.704 361.68 146.644 361.51 146.644 361.31V347.12C146.644 346.92 146.704 346.75 146.824 346.61C146.964 346.47 147.134 346.4 147.334 346.4H148.714C148.914 346.4 149.084 346.47 149.224 346.61C149.364 346.75 149.434 346.92 149.434 347.12V348.44C149.834 347.76 150.384 347.25 151.084 346.91C151.784 346.57 152.624 346.4 153.604 346.4H154.804C155.004 346.4 155.164 346.47 155.284 346.61C155.404 346.73 155.464 346.89 155.464 347.09V348.32C155.464 348.52 155.404 348.68 155.284 348.8C155.164 348.92 155.004 348.98 154.804 348.98H153.004C151.924 348.98 151.074 349.3 150.454 349.94C149.834 350.56 149.524 351.41 149.524 352.49V361.31C149.524 361.51 149.454 361.68 149.314 361.82C149.174 361.94 149.004 362 148.804 362H147.334ZM170.991 362.3C169.571 362.3 168.341 362.03 167.301 361.49C166.281 360.93 165.491 360.14 164.931 359.12C164.371 358.08 164.071 356.84 164.031 355.4C164.011 355.1 164.001 354.7 164.001 354.2C164.001 353.7 164.011 353.3 164.031 353C164.071 351.56 164.371 350.33 164.931 349.31C165.491 348.27 166.281 347.48 167.301 346.94C168.341 346.38 169.571 346.1 170.991 346.1C172.151 346.1 173.141 346.26 173.961 346.58C174.801 346.9 175.491 347.31 176.031 347.81C176.571 348.31 176.971 348.85 177.231 349.43C177.511 350.01 177.661 350.56 177.681 351.08C177.701 351.28 177.641 351.44 177.501 351.56C177.361 351.68 177.191 351.74 176.991 351.74H175.551C175.351 351.74 175.201 351.7 175.101 351.62C175.001 351.52 174.901 351.36 174.801 351.14C174.441 350.16 173.951 349.47 173.331 349.07C172.711 348.67 171.941 348.47 171.021 348.47C169.821 348.47 168.841 348.84 168.081 349.58C167.341 350.32 166.941 351.51 166.881 353.15C166.861 353.87 166.861 354.57 166.881 355.25C166.941 356.91 167.341 358.11 168.081 358.85C168.841 359.57 169.821 359.93 171.021 359.93C171.941 359.93 172.711 359.73 173.331 359.33C173.951 358.93 174.441 358.24 174.801 357.26C174.901 357.04 175.001 356.89 175.101 356.81C175.201 356.71 175.351 356.66 175.551 356.66H176.991C177.191 356.66 177.361 356.72 177.501 356.84C177.641 356.96 177.701 357.12 177.681 357.32C177.661 357.74 177.571 358.17 177.411 358.61C177.251 359.05 176.991 359.5 176.631 359.96C176.291 360.4 175.861 360.8 175.341 361.16C174.821 361.5 174.191 361.78 173.451 362C172.731 362.2 171.911 362.3 170.991 362.3ZM187.633 362.3C186.113 362.3 184.843 362.01 183.823 361.43C182.803 360.85 182.023 360.05 181.483 359.03C180.943 357.99 180.643 356.81 180.583 355.49C180.563 355.15 180.553 354.72 180.553 354.2C180.553 353.66 180.563 353.23 180.583 352.91C180.643 351.57 180.943 350.39 181.483 349.37C182.043 348.35 182.833 347.55 183.853 346.97C184.873 346.39 186.133 346.1 187.633 346.1C189.133 346.1 190.393 346.39 191.413 346.97C192.433 347.55 193.213 348.35 193.753 349.37C194.313 350.39 194.623 351.57 194.683 352.91C194.703 353.23 194.713 353.66 194.713 354.2C194.713 354.72 194.703 355.15 194.683 355.49C194.623 356.81 194.323 357.99 193.783 359.03C193.243 360.05 192.463 360.85 191.443 361.43C190.423 362.01 189.153 362.3 187.633 362.3ZM187.633 359.99C188.873 359.99 189.863 359.6 190.603 358.82C191.343 358.02 191.743 356.86 191.803 355.34C191.823 355.04 191.833 354.66 191.833 354.2C191.833 353.74 191.823 353.36 191.803 353.06C191.743 351.54 191.343 350.39 190.603 349.61C189.863 348.81 188.873 348.41 187.633 348.41C186.393 348.41 185.393 348.81 184.633 349.61C183.893 350.39 183.503 351.54 183.463 353.06C183.443 353.36 183.433 353.74 183.433 354.2C183.433 354.66 183.443 355.04 183.463 355.34C183.503 356.86 183.893 358.02 184.633 358.82C185.393 359.6 186.393 359.99 187.633 359.99ZM199.16 362C198.96 362 198.79 361.94 198.65 361.82C198.53 361.68 198.47 361.51 198.47 361.31V347.09C198.47 346.89 198.53 346.73 198.65 346.61C198.79 346.47 198.96 346.4 199.16 346.4H200.51C200.71 346.4 200.87 346.47 200.99 346.61C201.13 346.73 201.2 346.89 201.2 347.09V348.14C201.66 347.52 202.24 347.03 202.94 346.67C203.64 346.29 204.48 346.1 205.46 346.1C207.72 346.08 209.32 347 210.26 348.86C210.72 348.02 211.39 347.35 212.27 346.85C213.15 346.35 214.15 346.1 215.27 346.1C216.31 346.1 217.25 346.34 218.09 346.82C218.95 347.3 219.62 348.03 220.1 349.01C220.6 349.97 220.85 351.18 220.85 352.64V361.31C220.85 361.51 220.78 361.68 220.64 361.82C220.52 361.94 220.36 362 220.16 362H218.75C218.55 362 218.38 361.94 218.24 361.82C218.12 361.68 218.06 361.51 218.06 361.31V352.91C218.06 351.79 217.9 350.91 217.58 350.27C217.26 349.63 216.83 349.18 216.29 348.92C215.75 348.66 215.16 348.53 214.52 348.53C214 348.53 213.47 348.66 212.93 348.92C212.39 349.18 211.94 349.63 211.58 350.27C211.24 350.91 211.07 351.79 211.07 352.91V361.31C211.07 361.51 211 361.68 210.86 361.82C210.74 361.94 210.58 362 210.38 362H208.97C208.77 362 208.6 361.94 208.46 361.82C208.34 361.68 208.28 361.51 208.28 361.31V352.91C208.28 351.79 208.11 350.91 207.77 350.27C207.43 349.63 206.99 349.18 206.45 348.92C205.91 348.66 205.34 348.53 204.74 348.53C204.22 348.53 203.69 348.66 203.15 348.92C202.61 349.18 202.16 349.63 201.8 350.27C201.46 350.91 201.29 351.78 201.29 352.88V361.31C201.29 361.51 201.22 361.68 201.08 361.82C200.96 361.94 200.8 362 200.6 362H199.16ZM225.85 367.7C225.65 367.7 225.48 367.63 225.34 367.49C225.22 367.37 225.16 367.21 225.16 367.01V347.09C225.16 346.89 225.22 346.73 225.34 346.61C225.48 346.47 225.65 346.4 225.85 346.4H227.23C227.43 346.4 227.59 346.47 227.71 346.61C227.85 346.73 227.92 346.89 227.92 347.09V348.41C228.4 347.75 229.04 347.2 229.84 346.76C230.64 346.32 231.64 346.1 232.84 346.1C233.96 346.1 234.91 346.29 235.69 346.67C236.49 347.05 237.14 347.57 237.64 348.23C238.16 348.89 238.55 349.64 238.81 350.48C239.07 351.32 239.21 352.22 239.23 353.18C239.25 353.5 239.26 353.84 239.26 354.2C239.26 354.56 239.25 354.9 239.23 355.22C239.21 356.16 239.07 357.06 238.81 357.92C238.55 358.76 238.16 359.51 237.64 360.17C237.14 360.81 236.49 361.33 235.69 361.73C234.91 362.11 233.96 362.3 232.84 362.3C231.68 362.3 230.7 362.09 229.9 361.67C229.12 361.23 228.48 360.69 227.98 360.05V367.01C227.98 367.21 227.92 367.37 227.8 367.49C227.68 367.63 227.51 367.7 227.29 367.7H225.85ZM232.21 359.87C233.25 359.87 234.06 359.65 234.64 359.21C235.24 358.75 235.67 358.16 235.93 357.44C236.19 356.7 236.34 355.91 236.38 355.07C236.4 354.49 236.4 353.91 236.38 353.33C236.34 352.49 236.19 351.71 235.93 350.99C235.67 350.25 235.24 349.66 234.64 349.22C234.06 348.76 233.25 348.53 232.21 348.53C231.23 348.53 230.43 348.76 229.81 349.22C229.21 349.68 228.76 350.27 228.46 350.99C228.18 351.69 228.02 352.41 227.98 353.15C227.96 353.47 227.95 353.85 227.95 354.29C227.95 354.73 227.96 355.12 227.98 355.46C228 356.16 228.16 356.85 228.46 357.53C228.78 358.21 229.25 358.77 229.87 359.21C230.49 359.65 231.27 359.87 232.21 359.87ZM243.721 362C243.521 362 243.351 361.94 243.211 361.82C243.091 361.68 243.031 361.51 243.031 361.31V341.39C243.031 341.19 243.091 341.03 243.211 340.91C243.351 340.77 243.521 340.7 243.721 340.7H245.131C245.351 340.7 245.521 340.77 245.641 340.91C245.761 341.03 245.821 341.19 245.821 341.39V361.31C245.821 361.51 245.761 361.68 245.641 361.82C245.521 361.94 245.351 362 245.131 362H243.721ZM256.506 362.3C254.446 362.3 252.806 361.67 251.586 360.41C250.366 359.13 249.696 357.39 249.576 355.19C249.556 354.93 249.546 354.6 249.546 354.2C249.546 353.78 249.556 353.44 249.576 353.18C249.656 351.76 249.986 350.52 250.566 349.46C251.146 348.38 251.936 347.55 252.936 346.97C253.956 346.39 255.146 346.1 256.506 346.1C258.026 346.1 259.296 346.42 260.316 347.06C261.356 347.7 262.146 348.61 262.686 349.79C263.226 350.97 263.496 352.35 263.496 353.93V354.44C263.496 354.66 263.426 354.83 263.286 354.95C263.166 355.07 263.006 355.13 262.806 355.13H252.426C252.426 355.15 252.426 355.19 252.426 355.25C252.426 355.31 252.426 355.36 252.426 355.4C252.466 356.22 252.646 356.99 252.966 357.71C253.286 358.41 253.746 358.98 254.346 359.42C254.946 359.86 255.666 360.08 256.506 360.08C257.226 360.08 257.826 359.97 258.306 359.75C258.786 359.53 259.176 359.29 259.476 359.03C259.776 358.75 259.976 358.54 260.076 358.4C260.256 358.14 260.396 357.99 260.496 357.95C260.596 357.89 260.756 357.86 260.976 357.86H262.416C262.616 357.86 262.776 357.92 262.896 358.04C263.036 358.14 263.096 358.29 263.076 358.49C263.056 358.79 262.896 359.16 262.596 359.6C262.296 360.02 261.866 360.44 261.306 360.86C260.746 361.28 260.066 361.63 259.266 361.91C258.466 362.17 257.546 362.3 256.506 362.3ZM252.426 353.06H260.646V352.97C260.646 352.07 260.476 351.27 260.136 350.57C259.816 349.87 259.346 349.32 258.726 348.92C258.106 348.5 257.366 348.29 256.506 348.29C255.646 348.29 254.906 348.5 254.286 348.92C253.686 349.32 253.226 349.87 252.906 350.57C252.586 351.27 252.426 352.07 252.426 352.97V353.06ZM273.085 362C271.965 362 271.055 361.79 270.355 361.37C269.655 360.93 269.145 360.32 268.825 359.54C268.505 358.74 268.345 357.8 268.345 356.72V348.8H266.005C265.805 348.8 265.635 348.74 265.495 348.62C265.375 348.48 265.315 348.31 265.315 348.11V347.09C265.315 346.89 265.375 346.73 265.495 346.61C265.635 346.47 265.805 346.4 266.005 346.4H268.345V341.39C268.345 341.19 268.405 341.03 268.525 340.91C268.665 340.77 268.835 340.7 269.035 340.7H270.445C270.645 340.7 270.805 340.77 270.925 340.91C271.065 341.03 271.135 341.19 271.135 341.39V346.4H274.855C275.055 346.4 275.215 346.47 275.335 346.61C275.475 346.73 275.545 346.89 275.545 347.09V348.11C275.545 348.31 275.475 348.48 275.335 348.62C275.215 348.74 275.055 348.8 274.855 348.8H271.135V356.51C271.135 357.45 271.295 358.19 271.615 358.73C271.935 359.27 272.505 359.54 273.325 359.54H275.155C275.355 359.54 275.515 359.61 275.635 359.75C275.775 359.87 275.845 360.03 275.845 360.23V361.31C275.845 361.51 275.775 361.68 275.635 361.82C275.515 361.94 275.355 362 275.155 362H273.085ZM284.924 362.3C282.864 362.3 281.224 361.67 280.004 360.41C278.784 359.13 278.114 357.39 277.994 355.19C277.974 354.93 277.964 354.6 277.964 354.2C277.964 353.78 277.974 353.44 277.994 353.18C278.074 351.76 278.404 350.52 278.984 349.46C279.564 348.38 280.354 347.55 281.354 346.97C282.374 346.39 283.564 346.1 284.924 346.1C286.444 346.1 287.714 346.42 288.734 347.06C289.774 347.7 290.564 348.61 291.104 349.79C291.644 350.97 291.914 352.35 291.914 353.93V354.44C291.914 354.66 291.844 354.83 291.704 354.95C291.584 355.07 291.424 355.13 291.224 355.13H280.844C280.844 355.15 280.844 355.19 280.844 355.25C280.844 355.31 280.844 355.36 280.844 355.4C280.884 356.22 281.064 356.99 281.384 357.71C281.704 358.41 282.164 358.98 282.764 359.42C283.364 359.86 284.084 360.08 284.924 360.08C285.644 360.08 286.244 359.97 286.724 359.75C287.204 359.53 287.594 359.29 287.894 359.03C288.194 358.75 288.394 358.54 288.494 358.4C288.674 358.14 288.814 357.99 288.914 357.95C289.014 357.89 289.174 357.86 289.394 357.86H290.834C291.034 357.86 291.194 357.92 291.314 358.04C291.454 358.14 291.514 358.29 291.494 358.49C291.474 358.79 291.314 359.16 291.014 359.6C290.714 360.02 290.284 360.44 289.724 360.86C289.164 361.28 288.484 361.63 287.684 361.91C286.884 362.17 285.964 362.3 284.924 362.3ZM280.844 353.06H289.064V352.97C289.064 352.07 288.894 351.27 288.554 350.57C288.234 349.87 287.764 349.32 287.144 348.92C286.524 348.5 285.784 348.29 284.924 348.29C284.064 348.29 283.324 348.5 282.704 348.92C282.104 349.32 281.644 349.87 281.324 350.57C281.004 351.27 280.844 352.07 280.844 352.97V353.06ZM310.565 362.3C309.365 362.3 308.365 362.09 307.565 361.67C306.765 361.23 306.125 360.69 305.645 360.05V361.31C305.645 361.51 305.575 361.68 305.435 361.82C305.315 361.94 305.155 362 304.955 362H303.575C303.375 362 303.205 361.94 303.065 361.82C302.945 361.68 302.885 361.51 302.885 361.31V341.39C302.885 341.19 302.945 341.03 303.065 340.91C303.205 340.77 303.375 340.7 303.575 340.7H305.015C305.235 340.7 305.405 340.77 305.525 340.91C305.645 341.03 305.705 341.19 305.705 341.39V348.29C306.205 347.67 306.845 347.15 307.625 346.73C308.425 346.31 309.405 346.1 310.565 346.1C311.685 346.1 312.635 346.3 313.415 346.7C314.215 347.08 314.865 347.61 315.365 348.29C315.885 348.97 316.275 349.74 316.535 350.6C316.795 351.46 316.935 352.36 316.955 353.3C316.975 353.62 316.985 353.92 316.985 354.2C316.985 354.48 316.975 354.78 316.955 355.1C316.935 356.06 316.795 356.97 316.535 357.83C316.275 358.69 315.885 359.46 315.365 360.14C314.865 360.8 314.215 361.33 313.415 361.73C312.635 362.11 311.685 362.3 310.565 362.3ZM309.935 359.87C310.975 359.87 311.785 359.65 312.365 359.21C312.965 358.75 313.395 358.16 313.655 357.44C313.915 356.7 314.065 355.91 314.105 355.07C314.125 354.49 314.125 353.91 314.105 353.33C314.065 352.49 313.915 351.71 313.655 350.99C313.395 350.25 312.965 349.66 312.365 349.22C311.785 348.76 310.975 348.53 309.935 348.53C308.995 348.53 308.215 348.75 307.595 349.19C306.975 349.63 306.505 350.19 306.185 350.87C305.885 351.55 305.725 352.24 305.705 352.94C305.685 353.26 305.675 353.65 305.675 354.11C305.675 354.55 305.685 354.93 305.705 355.25C305.745 355.99 305.905 356.72 306.185 357.44C306.485 358.14 306.935 358.72 307.535 359.18C308.155 359.64 308.955 359.87 309.935 359.87ZM326.907 362.3C324.847 362.3 323.207 361.67 321.987 360.41C320.767 359.13 320.097 357.39 319.977 355.19C319.957 354.93 319.947 354.6 319.947 354.2C319.947 353.78 319.957 353.44 319.977 353.18C320.057 351.76 320.387 350.52 320.967 349.46C321.547 348.38 322.337 347.55 323.337 346.97C324.357 346.39 325.547 346.1 326.907 346.1C328.427 346.1 329.697 346.42 330.717 347.06C331.757 347.7 332.547 348.61 333.087 349.79C333.627 350.97 333.897 352.35 333.897 353.93V354.44C333.897 354.66 333.827 354.83 333.687 354.95C333.567 355.07 333.407 355.13 333.207 355.13H322.827C322.827 355.15 322.827 355.19 322.827 355.25C322.827 355.31 322.827 355.36 322.827 355.4C322.867 356.22 323.047 356.99 323.367 357.71C323.687 358.41 324.147 358.98 324.747 359.42C325.347 359.86 326.067 360.08 326.907 360.08C327.627 360.08 328.227 359.97 328.707 359.75C329.187 359.53 329.577 359.29 329.877 359.03C330.177 358.75 330.377 358.54 330.477 358.4C330.657 358.14 330.797 357.99 330.897 357.95C330.997 357.89 331.157 357.86 331.377 357.86H332.817C333.017 357.86 333.177 357.92 333.297 358.04C333.437 358.14 333.497 358.29 333.477 358.49C333.457 358.79 333.297 359.16 332.997 359.6C332.697 360.02 332.267 360.44 331.707 360.86C331.147 361.28 330.467 361.63 329.667 361.91C328.867 362.17 327.947 362.3 326.907 362.3ZM322.827 353.06H331.047V352.97C331.047 352.07 330.877 351.27 330.537 350.57C330.217 349.87 329.747 349.32 329.127 348.92C328.507 348.5 327.767 348.29 326.907 348.29C326.047 348.29 325.307 348.5 324.687 348.92C324.087 349.32 323.627 349.87 323.307 350.57C322.987 351.27 322.827 352.07 322.827 352.97V353.06ZM343.874 368.6C342.514 368.6 341.394 368.42 340.514 368.06C339.654 367.7 338.974 367.26 338.474 366.74C337.994 366.24 337.644 365.73 337.424 365.21C337.224 364.71 337.114 364.31 337.094 364.01C337.074 363.81 337.134 363.64 337.274 363.5C337.434 363.36 337.604 363.29 337.784 363.29H339.224C339.404 363.29 339.554 363.33 339.674 363.41C339.794 363.49 339.894 363.66 339.974 363.92C340.094 364.22 340.274 364.55 340.514 364.91C340.754 365.29 341.124 365.61 341.624 365.87C342.124 366.15 342.824 366.29 343.724 366.29C344.664 366.29 345.454 366.16 346.094 365.9C346.734 365.66 347.214 365.22 347.534 364.58C347.874 363.96 348.044 363.1 348.044 362V359.96C347.564 360.58 346.934 361.1 346.154 361.52C345.374 361.92 344.394 362.12 343.214 362.12C342.094 362.12 341.134 361.93 340.334 361.55C339.534 361.15 338.874 360.62 338.354 359.96C337.854 359.28 337.474 358.51 337.214 357.65C336.974 356.79 336.834 355.89 336.794 354.95C336.774 354.39 336.774 353.84 336.794 353.3C336.834 352.36 336.974 351.46 337.214 350.6C337.474 349.74 337.854 348.97 338.354 348.29C338.874 347.61 339.534 347.08 340.334 346.7C341.134 346.3 342.094 346.1 343.214 346.1C344.414 346.1 345.404 346.33 346.184 346.79C346.984 347.23 347.634 347.77 348.134 348.41V347.12C348.134 346.92 348.194 346.75 348.314 346.61C348.454 346.47 348.624 346.4 348.824 346.4H350.204C350.404 346.4 350.574 346.47 350.714 346.61C350.854 346.75 350.924 346.92 350.924 347.12V361.67C350.924 363.01 350.694 364.2 350.234 365.24C349.794 366.28 349.054 367.1 348.014 367.7C346.994 368.3 345.614 368.6 343.874 368.6ZM343.814 359.72C344.814 359.72 345.614 359.49 346.214 359.03C346.834 358.57 347.284 357.99 347.564 357.29C347.864 356.59 348.024 355.88 348.044 355.16C348.064 354.88 348.074 354.54 348.074 354.14C348.074 353.72 348.064 353.37 348.044 353.09C348.024 352.37 347.864 351.66 347.564 350.96C347.284 350.26 346.834 349.68 346.214 349.22C345.614 348.76 344.814 348.53 343.814 348.53C342.814 348.53 342.014 348.76 341.414 349.22C340.814 349.66 340.384 350.25 340.124 350.99C339.864 351.71 339.714 352.49 339.674 353.33C339.654 353.85 339.654 354.38 339.674 354.92C339.714 355.76 339.864 356.55 340.124 357.29C340.384 358.01 340.814 358.6 341.414 359.06C342.014 359.5 342.814 359.72 343.814 359.72ZM356.074 362C355.874 362 355.704 361.94 355.564 361.82C355.444 361.68 355.384 361.51 355.384 361.31V347.09C355.384 346.89 355.444 346.73 355.564 346.61C355.704 346.47 355.874 346.4 356.074 346.4H357.514C357.714 346.4 357.874 346.47 357.994 346.61C358.114 346.73 358.174 346.89 358.174 347.09V361.31C358.174 361.51 358.114 361.68 357.994 361.82C357.874 361.94 357.714 362 357.514 362H356.074ZM355.834 343.49C355.634 343.49 355.464 343.43 355.324 343.31C355.204 343.17 355.144 343 355.144 342.8V341.18C355.144 340.98 355.204 340.82 355.324 340.7C355.464 340.56 355.634 340.49 355.834 340.49H357.724C357.924 340.49 358.084 340.56 358.204 340.7C358.344 340.82 358.414 340.98 358.414 341.18V342.8C358.414 343 358.344 343.17 358.204 343.31C358.084 343.43 357.924 343.49 357.724 343.49H355.834ZM363.633 362C363.433 362 363.263 361.94 363.123 361.82C363.003 361.68 362.943 361.51 362.943 361.31V347.09C362.943 346.89 363.003 346.73 363.123 346.61C363.263 346.47 363.433 346.4 363.633 346.4H365.043C365.243 346.4 365.403 346.47 365.523 346.61C365.663 346.73 365.733 346.89 365.733 347.09V348.41C366.253 347.73 366.903 347.18 367.683 346.76C368.483 346.32 369.503 346.1 370.743 346.1C372.043 346.1 373.143 346.39 374.043 346.97C374.963 347.53 375.653 348.32 376.113 349.34C376.573 350.34 376.803 351.51 376.803 352.85V361.31C376.803 361.51 376.743 361.68 376.623 361.82C376.503 361.94 376.343 362 376.143 362H374.643C374.443 362 374.273 361.94 374.133 361.82C374.013 361.68 373.953 361.51 373.953 361.31V353C373.953 351.6 373.613 350.51 372.933 349.73C372.253 348.93 371.253 348.53 369.933 348.53C368.693 348.53 367.693 348.93 366.933 349.73C366.193 350.51 365.823 351.6 365.823 353V361.31C365.823 361.51 365.753 361.68 365.613 361.82C365.493 361.94 365.333 362 365.133 362H363.633ZM381.826 362C381.626 362 381.456 361.94 381.316 361.82C381.196 361.68 381.136 361.51 381.136 361.31V347.09C381.136 346.89 381.196 346.73 381.316 346.61C381.456 346.47 381.626 346.4 381.826 346.4H383.236C383.436 346.4 383.596 346.47 383.716 346.61C383.856 346.73 383.926 346.89 383.926 347.09V348.41C384.446 347.73 385.096 347.18 385.876 346.76C386.676 346.32 387.696 346.1 388.936 346.1C390.236 346.1 391.336 346.39 392.236 346.97C393.156 347.53 393.846 348.32 394.306 349.34C394.766 350.34 394.996 351.51 394.996 352.85V361.31C394.996 361.51 394.936 361.68 394.816 361.82C394.696 361.94 394.536 362 394.336 362H392.836C392.636 362 392.466 361.94 392.326 361.82C392.206 361.68 392.146 361.51 392.146 361.31V353C392.146 351.6 391.806 350.51 391.126 349.73C390.446 348.93 389.446 348.53 388.126 348.53C386.886 348.53 385.886 348.93 385.126 349.73C384.386 350.51 384.016 351.6 384.016 353V361.31C384.016 361.51 383.946 361.68 383.806 361.82C383.686 361.94 383.526 362 383.326 362H381.826ZM405.539 362.3C403.479 362.3 401.839 361.67 400.619 360.41C399.399 359.13 398.729 357.39 398.609 355.19C398.589 354.93 398.579 354.6 398.579 354.2C398.579 353.78 398.589 353.44 398.609 353.18C398.689 351.76 399.019 350.52 399.599 349.46C400.179 348.38 400.969 347.55 401.969 346.97C402.989 346.39 404.179 346.1 405.539 346.1C407.059 346.1 408.329 346.42 409.349 347.06C410.389 347.7 411.179 348.61 411.719 349.79C412.259 350.97 412.529 352.35 412.529 353.93V354.44C412.529 354.66 412.459 354.83 412.319 354.95C412.199 355.07 412.039 355.13 411.839 355.13H401.459C401.459 355.15 401.459 355.19 401.459 355.25C401.459 355.31 401.459 355.36 401.459 355.4C401.499 356.22 401.679 356.99 401.999 357.71C402.319 358.41 402.779 358.98 403.379 359.42C403.979 359.86 404.699 360.08 405.539 360.08C406.259 360.08 406.859 359.97 407.339 359.75C407.819 359.53 408.209 359.29 408.509 359.03C408.809 358.75 409.009 358.54 409.109 358.4C409.289 358.14 409.429 357.99 409.529 357.95C409.629 357.89 409.789 357.86 410.009 357.86H411.449C411.649 357.86 411.809 357.92 411.929 358.04C412.069 358.14 412.129 358.29 412.109 358.49C412.089 358.79 411.929 359.16 411.629 359.6C411.329 360.02 410.899 360.44 410.339 360.86C409.779 361.28 409.099 361.63 408.299 361.91C407.499 362.17 406.579 362.3 405.539 362.3ZM401.459 353.06H409.679V352.97C409.679 352.07 409.509 351.27 409.169 350.57C408.849 349.87 408.379 349.32 407.759 348.92C407.139 348.5 406.399 348.29 405.539 348.29C404.679 348.29 403.939 348.5 403.319 348.92C402.719 349.32 402.259 349.87 401.939 350.57C401.619 351.27 401.459 352.07 401.459 352.97V353.06ZM416.806 362C416.606 362 416.436 361.94 416.296 361.82C416.176 361.68 416.116 361.51 416.116 361.31V347.12C416.116 346.92 416.176 346.75 416.296 346.61C416.436 346.47 416.606 346.4 416.806 346.4H418.186C418.386 346.4 418.556 346.47 418.696 346.61C418.836 346.75 418.906 346.92 418.906 347.12V348.44C419.306 347.76 419.856 347.25 420.556 346.91C421.256 346.57 422.096 346.4 423.076 346.4H424.276C424.476 346.4 424.636 346.47 424.756 346.61C424.876 346.73 424.936 346.89 424.936 347.09V348.32C424.936 348.52 424.876 348.68 424.756 348.8C424.636 348.92 424.476 348.98 424.276 348.98H422.476C421.396 348.98 420.546 349.3 419.926 349.94C419.306 350.56 418.996 351.41 418.996 352.49V361.31C418.996 361.51 418.926 361.68 418.786 361.82C418.646 361.94 418.476 362 418.276 362H416.806ZM432.913 362.3C431.793 362.3 430.833 362.16 430.033 361.88C429.233 361.6 428.583 361.26 428.083 360.86C427.583 360.46 427.203 360.06 426.943 359.66C426.703 359.26 426.573 358.94 426.553 358.7C426.533 358.48 426.603 358.31 426.763 358.19C426.923 358.07 427.083 358.01 427.243 358.01H428.563C428.683 358.01 428.773 358.03 428.833 358.07C428.913 358.09 429.013 358.17 429.133 358.31C429.393 358.59 429.683 358.87 430.003 359.15C430.323 359.43 430.713 359.66 431.173 359.84C431.653 360.02 432.243 360.11 432.943 360.11C433.963 360.11 434.803 359.92 435.463 359.54C436.123 359.14 436.453 358.56 436.453 357.8C436.453 357.3 436.313 356.9 436.033 356.6C435.773 356.3 435.293 356.03 434.593 355.79C433.913 355.55 432.973 355.3 431.773 355.04C430.573 354.76 429.623 354.42 428.923 354.02C428.223 353.6 427.723 353.11 427.423 352.55C427.123 351.97 426.973 351.32 426.973 350.6C426.973 349.86 427.193 349.15 427.633 348.47C428.073 347.77 428.713 347.2 429.553 346.76C430.413 346.32 431.483 346.1 432.763 346.1C433.803 346.1 434.693 346.23 435.433 346.49C436.173 346.75 436.783 347.08 437.263 347.48C437.743 347.86 438.103 348.24 438.343 348.62C438.583 349 438.713 349.32 438.733 349.58C438.753 349.78 438.693 349.95 438.553 350.09C438.413 350.21 438.253 350.27 438.073 350.27H436.813C436.673 350.27 436.553 350.24 436.453 350.18C436.373 350.12 436.293 350.05 436.213 349.97C436.013 349.71 435.773 349.45 435.493 349.19C435.233 348.93 434.883 348.72 434.443 348.56C434.023 348.38 433.463 348.29 432.763 348.29C431.763 348.29 431.013 348.5 430.513 348.92C430.013 349.34 429.763 349.87 429.763 350.51C429.763 350.89 429.873 351.23 430.093 351.53C430.313 351.83 430.733 352.1 431.353 352.34C431.973 352.58 432.893 352.84 434.113 353.12C435.433 353.38 436.473 353.73 437.233 354.17C437.993 354.61 438.533 355.12 438.853 355.7C439.173 356.28 439.333 356.95 439.333 357.71C439.333 358.55 439.083 359.32 438.583 360.02C438.103 360.72 437.383 361.28 436.423 361.7C435.483 362.1 434.313 362.3 432.913 362.3ZM454.509 362.3C453.509 362.3 452.599 362.1 451.779 361.7C450.959 361.3 450.299 360.76 449.799 360.08C449.299 359.4 449.049 358.63 449.049 357.77C449.049 356.39 449.609 355.29 450.729 354.47C451.849 353.65 453.309 353.11 455.109 352.85L459.579 352.22V351.35C459.579 350.39 459.299 349.64 458.739 349.1C458.199 348.56 457.309 348.29 456.069 348.29C455.169 348.29 454.439 348.47 453.879 348.83C453.339 349.19 452.959 349.65 452.739 350.21C452.619 350.51 452.409 350.66 452.109 350.66H450.759C450.539 350.66 450.369 350.6 450.249 350.48C450.149 350.34 450.099 350.18 450.099 350C450.099 349.7 450.209 349.33 450.429 348.89C450.669 348.45 451.029 348.02 451.509 347.6C451.989 347.18 452.599 346.83 453.339 346.55C454.099 346.25 455.019 346.1 456.099 346.1C457.299 346.1 458.309 346.26 459.129 346.58C459.949 346.88 460.589 347.29 461.049 347.81C461.529 348.33 461.869 348.92 462.069 349.58C462.289 350.24 462.399 350.91 462.399 351.59V361.31C462.399 361.51 462.329 361.68 462.189 361.82C462.069 361.94 461.909 362 461.709 362H460.329C460.109 362 459.939 361.94 459.819 361.82C459.699 361.68 459.639 361.51 459.639 361.31V360.02C459.379 360.38 459.029 360.74 458.589 361.1C458.149 361.44 457.599 361.73 456.939 361.97C456.279 362.19 455.469 362.3 454.509 362.3ZM455.139 360.05C455.959 360.05 456.709 359.88 457.389 359.54C458.069 359.18 458.599 358.63 458.979 357.89C459.379 357.15 459.579 356.22 459.579 355.1V354.26L456.099 354.77C454.679 354.97 453.609 355.31 452.889 355.79C452.169 356.25 451.809 356.84 451.809 357.56C451.809 358.12 451.969 358.59 452.289 358.97C452.629 359.33 453.049 359.6 453.549 359.78C454.069 359.96 454.599 360.05 455.139 360.05ZM467.402 362C467.202 362 467.032 361.94 466.892 361.82C466.772 361.68 466.712 361.51 466.712 361.31V347.09C466.712 346.89 466.772 346.73 466.892 346.61C467.032 346.47 467.202 346.4 467.402 346.4H468.812C469.012 346.4 469.172 346.47 469.292 346.61C469.432 346.73 469.502 346.89 469.502 347.09V348.41C470.022 347.73 470.672 347.18 471.452 346.76C472.252 346.32 473.272 346.1 474.512 346.1C475.812 346.1 476.912 346.39 477.812 346.97C478.732 347.53 479.422 348.32 479.882 349.34C480.342 350.34 480.572 351.51 480.572 352.85V361.31C480.572 361.51 480.512 361.68 480.392 361.82C480.272 361.94 480.112 362 479.912 362H478.412C478.212 362 478.042 361.94 477.902 361.82C477.782 361.68 477.722 361.51 477.722 361.31V353C477.722 351.6 477.382 350.51 476.702 349.73C476.022 348.93 475.022 348.53 473.702 348.53C472.462 348.53 471.462 348.93 470.702 349.73C469.962 350.51 469.592 351.6 469.592 353V361.31C469.592 361.51 469.522 361.68 469.382 361.82C469.262 361.94 469.102 362 468.902 362H467.402ZM490.606 362.3C489.506 362.3 488.556 362.11 487.756 361.73C486.956 361.33 486.296 360.8 485.776 360.14C485.276 359.46 484.896 358.69 484.636 357.83C484.396 356.97 484.256 356.06 484.216 355.1C484.196 354.78 484.186 354.48 484.186 354.2C484.186 353.92 484.196 353.62 484.216 353.3C484.256 352.36 484.396 351.46 484.636 350.6C484.896 349.74 485.276 348.97 485.776 348.29C486.296 347.61 486.956 347.08 487.756 346.7C488.556 346.3 489.506 346.1 490.606 346.1C491.786 346.1 492.766 346.31 493.546 346.73C494.326 347.15 494.966 347.67 495.466 348.29V341.39C495.466 341.19 495.526 341.03 495.646 340.91C495.786 340.77 495.956 340.7 496.156 340.7H497.596C497.796 340.7 497.956 340.77 498.076 340.91C498.216 341.03 498.286 341.19 498.286 341.39V361.31C498.286 361.51 498.216 361.68 498.076 361.82C497.956 361.94 497.796 362 497.596 362H496.246C496.026 362 495.856 361.94 495.736 361.82C495.616 361.68 495.556 361.51 495.556 361.31V360.05C495.056 360.69 494.406 361.23 493.606 361.67C492.806 362.09 491.806 362.3 490.606 362.3ZM491.236 359.87C492.236 359.87 493.036 359.64 493.636 359.18C494.236 358.72 494.686 358.14 494.986 357.44C495.286 356.72 495.446 355.99 495.466 355.25C495.486 354.93 495.496 354.55 495.496 354.11C495.496 353.65 495.486 353.26 495.466 352.94C495.446 352.24 495.276 351.55 494.956 350.87C494.656 350.19 494.196 349.63 493.576 349.19C492.976 348.75 492.196 348.53 491.236 348.53C490.216 348.53 489.406 348.76 488.806 349.22C488.206 349.66 487.776 350.25 487.516 350.99C487.256 351.71 487.106 352.49 487.066 353.33C487.046 353.91 487.046 354.49 487.066 355.07C487.106 355.91 487.256 356.7 487.516 357.44C487.776 358.16 488.206 358.75 488.806 359.21C489.406 359.65 490.216 359.87 491.236 359.87ZM516.401 362.3C514.981 362.3 513.751 362.03 512.711 361.49C511.691 360.93 510.901 360.14 510.341 359.12C509.781 358.08 509.481 356.84 509.441 355.4C509.421 355.1 509.411 354.7 509.411 354.2C509.411 353.7 509.421 353.3 509.441 353C509.481 351.56 509.781 350.33 510.341 349.31C510.901 348.27 511.691 347.48 512.711 346.94C513.751 346.38 514.981 346.1 516.401 346.1C517.561 346.1 518.551 346.26 519.371 346.58C520.211 346.9 520.901 347.31 521.441 347.81C521.981 348.31 522.381 348.85 522.641 349.43C522.921 350.01 523.071 350.56 523.091 351.08C523.111 351.28 523.051 351.44 522.911 351.56C522.771 351.68 522.601 351.74 522.401 351.74H520.961C520.761 351.74 520.611 351.7 520.511 351.62C520.411 351.52 520.311 351.36 520.211 351.14C519.851 350.16 519.361 349.47 518.741 349.07C518.121 348.67 517.351 348.47 516.431 348.47C515.231 348.47 514.251 348.84 513.491 349.58C512.751 350.32 512.351 351.51 512.291 353.15C512.271 353.87 512.271 354.57 512.291 355.25C512.351 356.91 512.751 358.11 513.491 358.85C514.251 359.57 515.231 359.93 516.431 359.93C517.351 359.93 518.121 359.73 518.741 359.33C519.361 358.93 519.851 358.24 520.211 357.26C520.311 357.04 520.411 356.89 520.511 356.81C520.611 356.71 520.761 356.66 520.961 356.66H522.401C522.601 356.66 522.771 356.72 522.911 356.84C523.051 356.96 523.111 357.12 523.091 357.32C523.071 357.74 522.981 358.17 522.821 358.61C522.661 359.05 522.401 359.5 522.041 359.96C521.701 360.4 521.271 360.8 520.751 361.16C520.231 361.5 519.601 361.78 518.861 362C518.141 362.2 517.321 362.3 516.401 362.3ZM532.474 362.3C531.194 362.3 530.104 362.02 529.204 361.46C528.324 360.88 527.654 360.08 527.194 359.06C526.734 358.04 526.504 356.87 526.504 355.55V347.09C526.504 346.89 526.564 346.73 526.684 346.61C526.824 346.47 526.994 346.4 527.194 346.4H528.694C528.894 346.4 529.054 346.47 529.174 346.61C529.314 346.73 529.384 346.89 529.384 347.09V355.4C529.384 358.38 530.684 359.87 533.284 359.87C534.524 359.87 535.514 359.48 536.254 358.7C537.014 357.9 537.394 356.8 537.394 355.4V347.09C537.394 346.89 537.454 346.73 537.574 346.61C537.714 346.47 537.884 346.4 538.084 346.4H539.554C539.774 346.4 539.944 346.47 540.064 346.61C540.184 346.73 540.244 346.89 540.244 347.09V361.31C540.244 361.51 540.184 361.68 540.064 361.82C539.944 361.94 539.774 362 539.554 362H538.174C537.974 362 537.804 361.94 537.664 361.82C537.544 361.68 537.484 361.51 537.484 361.31V359.99C536.944 360.69 536.284 361.25 535.504 361.67C534.744 362.09 533.734 362.3 532.474 362.3ZM545.39 362C545.19 362 545.02 361.94 544.88 361.82C544.76 361.68 544.7 361.51 544.7 361.31V347.12C544.7 346.92 544.76 346.75 544.88 346.61C545.02 346.47 545.19 346.4 545.39 346.4H546.77C546.97 346.4 547.14 346.47 547.28 346.61C547.42 346.75 547.49 346.92 547.49 347.12V348.44C547.89 347.76 548.44 347.25 549.14 346.91C549.84 346.57 550.68 346.4 551.66 346.4H552.86C553.06 346.4 553.22 346.47 553.34 346.61C553.46 346.73 553.52 346.89 553.52 347.09V348.32C553.52 348.52 553.46 348.68 553.34 348.8C553.22 348.92 553.06 348.98 552.86 348.98H551.06C549.98 348.98 549.13 349.3 548.51 349.94C547.89 350.56 547.58 351.41 547.58 352.49V361.31C547.58 361.51 547.51 361.68 547.37 361.82C547.23 361.94 547.06 362 546.86 362H545.39ZM556.787 362C556.587 362 556.417 361.94 556.277 361.82C556.157 361.68 556.097 361.51 556.097 361.31V347.09C556.097 346.89 556.157 346.73 556.277 346.61C556.417 346.47 556.587 346.4 556.787 346.4H558.227C558.427 346.4 558.587 346.47 558.707 346.61C558.827 346.73 558.887 346.89 558.887 347.09V361.31C558.887 361.51 558.827 361.68 558.707 361.82C558.587 361.94 558.427 362 558.227 362H556.787ZM556.547 343.49C556.347 343.49 556.177 343.43 556.037 343.31C555.917 343.17 555.857 343 555.857 342.8V341.18C555.857 340.98 555.917 340.82 556.037 340.7C556.177 340.56 556.347 340.49 556.547 340.49H558.437C558.637 340.49 558.797 340.56 558.917 340.7C559.057 340.82 559.127 340.98 559.127 341.18V342.8C559.127 343 559.057 343.17 558.917 343.31C558.797 343.43 558.637 343.49 558.437 343.49H556.547ZM569.811 362.3C568.291 362.3 567.021 362.01 566.001 361.43C564.981 360.85 564.201 360.05 563.661 359.03C563.121 357.99 562.821 356.81 562.761 355.49C562.741 355.15 562.731 354.72 562.731 354.2C562.731 353.66 562.741 353.23 562.761 352.91C562.821 351.57 563.121 350.39 563.661 349.37C564.221 348.35 565.011 347.55 566.031 346.97C567.051 346.39 568.311 346.1 569.811 346.1C571.311 346.1 572.571 346.39 573.591 346.97C574.611 347.55 575.391 348.35 575.931 349.37C576.491 350.39 576.801 351.57 576.861 352.91C576.881 353.23 576.891 353.66 576.891 354.2C576.891 354.72 576.881 355.15 576.861 355.49C576.801 356.81 576.501 357.99 575.961 359.03C575.421 360.05 574.641 360.85 573.621 361.43C572.601 362.01 571.331 362.3 569.811 362.3ZM569.811 359.99C571.051 359.99 572.041 359.6 572.781 358.82C573.521 358.02 573.921 356.86 573.981 355.34C574.001 355.04 574.011 354.66 574.011 354.2C574.011 353.74 574.001 353.36 573.981 353.06C573.921 351.54 573.521 350.39 572.781 349.61C572.041 348.81 571.051 348.41 569.811 348.41C568.571 348.41 567.571 348.81 566.811 349.61C566.071 350.39 565.681 351.54 565.641 353.06C565.621 353.36 565.611 353.74 565.611 354.2C565.611 354.66 565.621 355.04 565.641 355.34C565.681 356.86 566.071 358.02 566.811 358.82C567.571 359.6 568.571 359.99 569.811 359.99ZM586.468 362.3C585.188 362.3 584.098 362.02 583.198 361.46C582.318 360.88 581.648 360.08 581.188 359.06C580.728 358.04 580.498 356.87 580.498 355.55V347.09C580.498 346.89 580.558 346.73 580.678 346.61C580.818 346.47 580.988 346.4 581.188 346.4H582.688C582.888 346.4 583.048 346.47 583.168 346.61C583.308 346.73 583.378 346.89 583.378 347.09V355.4C583.378 358.38 584.678 359.87 587.278 359.87C588.518 359.87 589.508 359.48 590.248 358.7C591.008 357.9 591.388 356.8 591.388 355.4V347.09C591.388 346.89 591.448 346.73 591.568 346.61C591.708 346.47 591.878 346.4 592.078 346.4H593.548C593.768 346.4 593.938 346.47 594.058 346.61C594.178 346.73 594.238 346.89 594.238 347.09V361.31C594.238 361.51 594.178 361.68 594.058 361.82C593.938 361.94 593.768 362 593.548 362H592.168C591.968 362 591.798 361.94 591.658 361.82C591.538 361.68 591.478 361.51 591.478 361.31V359.99C590.938 360.69 590.278 361.25 589.498 361.67C588.738 362.09 587.728 362.3 586.468 362.3ZM604.095 362.3C602.975 362.3 602.015 362.16 601.215 361.88C600.415 361.6 599.765 361.26 599.265 360.86C598.765 360.46 598.385 360.06 598.125 359.66C597.885 359.26 597.755 358.94 597.735 358.7C597.715 358.48 597.785 358.31 597.945 358.19C598.105 358.07 598.265 358.01 598.425 358.01H599.745C599.865 358.01 599.955 358.03 600.015 358.07C600.095 358.09 600.195 358.17 600.315 358.31C600.575 358.59 600.865 358.87 601.185 359.15C601.505 359.43 601.895 359.66 602.355 359.84C602.835 360.02 603.425 360.11 604.125 360.11C605.145 360.11 605.985 359.92 606.645 359.54C607.305 359.14 607.635 358.56 607.635 357.8C607.635 357.3 607.495 356.9 607.215 356.6C606.955 356.3 606.475 356.03 605.775 355.79C605.095 355.55 604.155 355.3 602.955 355.04C601.755 354.76 600.805 354.42 600.105 354.02C599.405 353.6 598.905 353.11 598.605 352.55C598.305 351.97 598.155 351.32 598.155 350.6C598.155 349.86 598.375 349.15 598.815 348.47C599.255 347.77 599.895 347.2 600.735 346.76C601.595 346.32 602.665 346.1 603.945 346.1C604.985 346.1 605.875 346.23 606.615 346.49C607.355 346.75 607.965 347.08 608.445 347.48C608.925 347.86 609.285 348.24 609.525 348.62C609.765 349 609.895 349.32 609.915 349.58C609.935 349.78 609.875 349.95 609.735 350.09C609.595 350.21 609.435 350.27 609.255 350.27H607.995C607.855 350.27 607.735 350.24 607.635 350.18C607.555 350.12 607.475 350.05 607.395 349.97C607.195 349.71 606.955 349.45 606.675 349.19C606.415 348.93 606.065 348.72 605.625 348.56C605.205 348.38 604.645 348.29 603.945 348.29C602.945 348.29 602.195 348.5 601.695 348.92C601.195 349.34 600.945 349.87 600.945 350.51C600.945 350.89 601.055 351.23 601.275 351.53C601.495 351.83 601.915 352.1 602.535 352.34C603.155 352.58 604.075 352.84 605.295 353.12C606.615 353.38 607.655 353.73 608.415 354.17C609.175 354.61 609.715 355.12 610.035 355.7C610.355 356.28 610.515 356.95 610.515 357.71C610.515 358.55 610.265 359.32 609.765 360.02C609.285 360.72 608.565 361.28 607.605 361.7C606.665 362.1 605.495 362.3 604.095 362.3ZM622.061 367.7C621.861 367.7 621.691 367.63 621.551 367.49C621.431 367.37 621.371 367.21 621.371 367.01V347.09C621.371 346.89 621.431 346.73 621.551 346.61C621.691 346.47 621.861 346.4 622.061 346.4H623.441C623.641 346.4 623.801 346.47 623.921 346.61C624.061 346.73 624.131 346.89 624.131 347.09V348.41C624.611 347.75 625.251 347.2 626.051 346.76C626.851 346.32 627.851 346.1 629.051 346.1C630.171 346.1 631.121 346.29 631.901 346.67C632.701 347.05 633.351 347.57 633.851 348.23C634.371 348.89 634.761 349.64 635.021 350.48C635.281 351.32 635.421 352.22 635.441 353.18C635.461 353.5 635.471 353.84 635.471 354.2C635.471 354.56 635.461 354.9 635.441 355.22C635.421 356.16 635.281 357.06 635.021 357.92C634.761 358.76 634.371 359.51 633.851 360.17C633.351 360.81 632.701 361.33 631.901 361.73C631.121 362.11 630.171 362.3 629.051 362.3C627.891 362.3 626.911 362.09 626.111 361.67C625.331 361.23 624.691 360.69 624.191 360.05V367.01C624.191 367.21 624.131 367.37 624.011 367.49C623.891 367.63 623.721 367.7 623.501 367.7H622.061ZM628.421 359.87C629.461 359.87 630.271 359.65 630.851 359.21C631.451 358.75 631.881 358.16 632.141 357.44C632.401 356.7 632.551 355.91 632.591 355.07C632.611 354.49 632.611 353.91 632.591 353.33C632.551 352.49 632.401 351.71 632.141 350.99C631.881 350.25 631.451 349.66 630.851 349.22C630.271 348.76 629.461 348.53 628.421 348.53C627.441 348.53 626.641 348.76 626.021 349.22C625.421 349.68 624.971 350.27 624.671 350.99C624.391 351.69 624.231 352.41 624.191 353.15C624.171 353.47 624.161 353.85 624.161 354.29C624.161 354.73 624.171 355.12 624.191 355.46C624.211 356.16 624.371 356.85 624.671 357.53C624.991 358.21 625.461 358.77 626.081 359.21C626.701 359.65 627.481 359.87 628.421 359.87ZM645.422 362.3C643.362 362.3 641.722 361.67 640.502 360.41C639.282 359.13 638.612 357.39 638.492 355.19C638.472 354.93 638.462 354.6 638.462 354.2C638.462 353.78 638.472 353.44 638.492 353.18C638.572 351.76 638.902 350.52 639.482 349.46C640.062 348.38 640.852 347.55 641.852 346.97C642.872 346.39 644.062 346.1 645.422 346.1C646.942 346.1 648.212 346.42 649.232 347.06C650.272 347.7 651.062 348.61 651.602 349.79C652.142 350.97 652.412 352.35 652.412 353.93V354.44C652.412 354.66 652.342 354.83 652.202 354.95C652.082 355.07 651.922 355.13 651.722 355.13H641.342C641.342 355.15 641.342 355.19 641.342 355.25C641.342 355.31 641.342 355.36 641.342 355.4C641.382 356.22 641.562 356.99 641.882 357.71C642.202 358.41 642.662 358.98 643.262 359.42C643.862 359.86 644.582 360.08 645.422 360.08C646.142 360.08 646.742 359.97 647.222 359.75C647.702 359.53 648.092 359.29 648.392 359.03C648.692 358.75 648.892 358.54 648.992 358.4C649.172 358.14 649.312 357.99 649.412 357.95C649.512 357.89 649.672 357.86 649.892 357.86H651.332C651.532 357.86 651.692 357.92 651.812 358.04C651.952 358.14 652.012 358.29 651.992 358.49C651.972 358.79 651.812 359.16 651.512 359.6C651.212 360.02 650.782 360.44 650.222 360.86C649.662 361.28 648.982 361.63 648.182 361.91C647.382 362.17 646.462 362.3 645.422 362.3ZM641.342 353.06H649.562V352.97C649.562 352.07 649.392 351.27 649.052 350.57C648.732 349.87 648.262 349.32 647.642 348.92C647.022 348.5 646.282 348.29 645.422 348.29C644.562 348.29 643.822 348.5 643.202 348.92C642.602 349.32 642.142 349.87 641.822 350.57C641.502 351.27 641.342 352.07 641.342 352.97V353.06ZM662.389 362.3C660.869 362.3 659.599 362.01 658.579 361.43C657.559 360.85 656.779 360.05 656.239 359.03C655.699 357.99 655.399 356.81 655.339 355.49C655.319 355.15 655.309 354.72 655.309 354.2C655.309 353.66 655.319 353.23 655.339 352.91C655.399 351.57 655.699 350.39 656.239 349.37C656.799 348.35 657.589 347.55 658.609 346.97C659.629 346.39 660.889 346.1 662.389 346.1C663.889 346.1 665.149 346.39 666.169 346.97C667.189 347.55 667.969 348.35 668.509 349.37C669.069 350.39 669.379 351.57 669.439 352.91C669.459 353.23 669.469 353.66 669.469 354.2C669.469 354.72 669.459 355.15 669.439 355.49C669.379 356.81 669.079 357.99 668.539 359.03C667.999 360.05 667.219 360.85 666.199 361.43C665.179 362.01 663.909 362.3 662.389 362.3ZM662.389 359.99C663.629 359.99 664.619 359.6 665.359 358.82C666.099 358.02 666.499 356.86 666.559 355.34C666.579 355.04 666.589 354.66 666.589 354.2C666.589 353.74 666.579 353.36 666.559 353.06C666.499 351.54 666.099 350.39 665.359 349.61C664.619 348.81 663.629 348.41 662.389 348.41C661.149 348.41 660.149 348.81 659.389 349.61C658.649 350.39 658.259 351.54 658.219 353.06C658.199 353.36 658.189 353.74 658.189 354.2C658.189 354.66 658.199 355.04 658.219 355.34C658.259 356.86 658.649 358.02 659.389 358.82C660.149 359.6 661.149 359.99 662.389 359.99ZM673.946 367.7C673.746 367.7 673.576 367.63 673.436 367.49C673.316 367.37 673.256 367.21 673.256 367.01V347.09C673.256 346.89 673.316 346.73 673.436 346.61C673.576 346.47 673.746 346.4 673.946 346.4H675.326C675.526 346.4 675.686 346.47 675.806 346.61C675.946 346.73 676.016 346.89 676.016 347.09V348.41C676.496 347.75 677.136 347.2 677.936 346.76C678.736 346.32 679.736 346.1 680.936 346.1C682.056 346.1 683.006 346.29 683.786 346.67C684.586 347.05 685.236 347.57 685.736 348.23C686.256 348.89 686.646 349.64 686.906 350.48C687.166 351.32 687.306 352.22 687.326 353.18C687.346 353.5 687.356 353.84 687.356 354.2C687.356 354.56 687.346 354.9 687.326 355.22C687.306 356.16 687.166 357.06 686.906 357.92C686.646 358.76 686.256 359.51 685.736 360.17C685.236 360.81 684.586 361.33 683.786 361.73C683.006 362.11 682.056 362.3 680.936 362.3C679.776 362.3 678.796 362.09 677.996 361.67C677.216 361.23 676.576 360.69 676.076 360.05V367.01C676.076 367.21 676.016 367.37 675.896 367.49C675.776 367.63 675.606 367.7 675.386 367.7H673.946ZM680.306 359.87C681.346 359.87 682.156 359.65 682.736 359.21C683.336 358.75 683.766 358.16 684.026 357.44C684.286 356.7 684.436 355.91 684.476 355.07C684.496 354.49 684.496 353.91 684.476 353.33C684.436 352.49 684.286 351.71 684.026 350.99C683.766 350.25 683.336 349.66 682.736 349.22C682.156 348.76 681.346 348.53 680.306 348.53C679.326 348.53 678.526 348.76 677.906 349.22C677.306 349.68 676.856 350.27 676.556 350.99C676.276 351.69 676.116 352.41 676.076 353.15C676.056 353.47 676.046 353.85 676.046 354.29C676.046 354.73 676.056 355.12 676.076 355.46C676.096 356.16 676.256 356.85 676.556 357.53C676.876 358.21 677.346 358.77 677.966 359.21C678.586 359.65 679.366 359.87 680.306 359.87ZM691.817 362C691.617 362 691.447 361.94 691.307 361.82C691.187 361.68 691.127 361.51 691.127 361.31V341.39C691.127 341.19 691.187 341.03 691.307 340.91C691.447 340.77 691.617 340.7 691.817 340.7H693.227C693.447 340.7 693.617 340.77 693.737 340.91C693.857 341.03 693.917 341.19 693.917 341.39V361.31C693.917 361.51 693.857 361.68 693.737 361.82C693.617 361.94 693.447 362 693.227 362H691.817ZM704.602 362.3C702.542 362.3 700.902 361.67 699.682 360.41C698.462 359.13 697.792 357.39 697.672 355.19C697.652 354.93 697.642 354.6 697.642 354.2C697.642 353.78 697.652 353.44 697.672 353.18C697.752 351.76 698.082 350.52 698.662 349.46C699.242 348.38 700.032 347.55 701.032 346.97C702.052 346.39 703.242 346.1 704.602 346.1C706.122 346.1 707.392 346.42 708.412 347.06C709.452 347.7 710.242 348.61 710.782 349.79C711.322 350.97 711.592 352.35 711.592 353.93V354.44C711.592 354.66 711.522 354.83 711.382 354.95C711.262 355.07 711.102 355.13 710.902 355.13H700.522C700.522 355.15 700.522 355.19 700.522 355.25C700.522 355.31 700.522 355.36 700.522 355.4C700.562 356.22 700.742 356.99 701.062 357.71C701.382 358.41 701.842 358.98 702.442 359.42C703.042 359.86 703.762 360.08 704.602 360.08C705.322 360.08 705.922 359.97 706.402 359.75C706.882 359.53 707.272 359.29 707.572 359.03C707.872 358.75 708.072 358.54 708.172 358.4C708.352 358.14 708.492 357.99 708.592 357.95C708.692 357.89 708.852 357.86 709.072 357.86H710.512C710.712 357.86 710.872 357.92 710.992 358.04C711.132 358.14 711.192 358.29 711.172 358.49C711.152 358.79 710.992 359.16 710.692 359.6C710.392 360.02 709.962 360.44 709.402 360.86C708.842 361.28 708.162 361.63 707.362 361.91C706.562 362.17 705.642 362.3 704.602 362.3ZM700.522 353.06H708.742V352.97C708.742 352.07 708.572 351.27 708.232 350.57C707.912 349.87 707.442 349.32 706.822 348.92C706.202 348.5 705.462 348.29 704.602 348.29C703.742 348.29 703.002 348.5 702.382 348.92C701.782 349.32 701.322 349.87 701.002 350.57C700.682 351.27 700.522 352.07 700.522 352.97V353.06Z" fill="white"/>
<g filter="url(#filter2_d_18_7)">
<path d="M736 270.2C734.8 270.2 733.8 269.8 733 269C732.333 268.2 732.267 267.2 732.8 266L742.4 239.8H720.2C718.867 239.8 717.867 239.4 717.2 238.6C716.667 237.8 716.467 236.733 716.6 235.4L717.2 232.6C717.467 231.267 718.067 230.2 719 229.4C720.067 228.6 721.267 228.2 722.6 228.2H746.4L760.6 189H736.2C734.867 189 733.867 188.6 733.2 187.8C732.667 187 732.467 185.933 732.6 184.6L733.2 181.8C733.467 180.467 734.067 179.4 735 178.6C736.067 177.8 737.267 177.4 738.6 177.4H764.8L774.4 151.2C774.8 150.133 775.4 149.2 776.2 148.4C777.133 147.467 778.267 147 779.6 147H783.2C784.4 147 785.333 147.4 786 148.2C786.667 149 786.8 150 786.4 151.2L776.8 177.4H810.2L819.8 151.2C820.2 150.133 820.8 149.2 821.6 148.4C822.533 147.467 823.667 147 825 147H828.6C829.8 147 830.733 147.4 831.4 148.2C832.067 149 832.2 150 831.8 151.2L822.2 177.4H844C845.333 177.4 846.267 177.8 846.8 178.6C847.467 179.4 847.667 180.467 847.4 181.8L846.8 184.6C846.667 185.933 846.067 187 845 187.8C844.067 188.6 842.933 189 841.6 189H818.2L804 228.2H828C829.333 228.2 830.267 228.6 830.8 229.4C831.467 230.2 831.667 231.267 831.4 232.6L830.8 235.4C830.667 236.733 830.067 237.8 829 238.6C828.067 239.4 826.933 239.8 825.6 239.8H799.8L790.4 266C789.867 267.2 789.133 268.2 788.2 269C787.4 269.8 786.333 270.2 785 270.2H781.4C780.2 270.2 779.2 269.8 778.4 269C777.733 268.2 777.667 267.2 778.2 266L787.8 239.8H754.4L745 266C744.467 267.2 743.733 268.2 742.8 269C742 269.8 740.933 270.2 739.6 270.2H736ZM758.6 228.2H791.8L806 189H772.8L758.6 228.2ZM889.034 278C887.701 278 886.701 277.6 886.034 276.8C885.368 276 885.168 274.933 885.434 273.6L910.434 156L869.634 182.8C868.301 183.6 867.101 183.933 866.034 183.8C864.968 183.667 864.101 183.067 863.434 182L861.434 178.4C860.901 177.333 860.768 176.267 861.034 175.2C861.434 174 862.301 173 863.634 172.2L913.234 139.4C914.301 138.733 915.101 138.333 915.634 138.2C916.168 138.067 917.034 138 918.234 138H922.434C923.768 138 924.768 138.4 925.434 139.2C926.101 140 926.301 141.067 926.034 142.4L898.034 273.6C897.768 274.933 897.168 276 896.234 276.8C895.301 277.6 894.168 278 892.834 278H889.034Z" fill="#88FCFF" fill-opacity="0.73" shape-rendering="crispEdges"/>
</g>
<defs>
<filter id="filter0_d_18_7" x="105.395" y="121.65" width="312.282" height="96.5" filterUnits="userSpaceOnUse" color-interpolation-filters="sRGB">
<feFlood flood-opacity="0" result="BackgroundImageFix"/>
<feColorMatrix in="SourceAlpha" type="matrix" values="0 0 0 0 0 0 0 0 0 0 0 0 0 0 0 0 0 0 127 0" result="hardAlpha"/>
<feOffset dy="4"/>
<feGaussianBlur stdDeviation="5"/>
<feComposite in2="hardAlpha" operator="out"/>
<feColorMatrix type="matrix" values="0 0 0 0 0 0 0 0 0 0 0 0 0 0 0 0 0 0 0.2 0"/>
<feBlend mode="normal" in2="BackgroundImageFix" result="effect1_dropShadow_18_7"/>
<feBlend mode="normal" in="SourceGraphic" in2="effect1_dropShadow_18_7" result="shape"/>
</filter>
<filter id="filter1_d_18_7" x="98.7649" y="221.1" width="405.429" height="99.0498" filterUnits="userSpaceOnUse" color-interpolation-filters="sRGB">
<feFlood flood-opacity="0" result="BackgroundImageFix"/>
<feColorMatrix in="SourceAlpha" type="matrix" values="0 0 0 0 0 0 0 0 0 0 0 0 0 0 0 0 0 0 127 0" result="hardAlpha"/>
<feOffset dy="4"/>
<feGaussianBlur stdDeviation="5"/>
<feComposite in2="hardAlpha" operator="out"/>
<feColorMatrix type="matrix" values="0 0 0 0 0 0 0 0 0 0 0 0 0 0 0 0 0 0 0.2 0"/>
<feBlend mode="normal" in2="BackgroundImageFix" result="effect1_dropShadow_18_7"/>
<feBlend mode="normal" in="SourceGraphic" in2="effect1_dropShadow_18_7" result="shape"/>
</filter>
<filter id="filter2_d_18_7" x="706.4" y="131" width="230.034" height="160" filterUnits="userSpaceOnUse" color-interpolation-filters="sRGB">
<feFlood flood-opacity="0" result="BackgroundImageFix"/>
<feColorMatrix in="SourceAlpha" type="matrix" values="0 0 0 0 0 0 0 0 0 0 0 0 0 0 0 0 0 0 127 0" result="hardAlpha"/>
<feOffset dy="3"/>
<feGaussianBlur stdDeviation="5"/>
<feComposite in2="hardAlpha" operator="out"/>
<feColorMatrix type="matrix" values="0 0 0 0 0 0 0 0 0 0 0 0 0 0 0 0 0 0 0.1 0"/>
<feBlend mode="normal" in2="BackgroundImageFix" result="effect1_dropShadow_18_7"/>
<feBlend mode="normal" in="SourceGraphic" in2="effect1_dropShadow_18_7" result="shape"/>
</filter>
<linearGradient id="paint0_linear_18_7" x1="0" y1="0" x2="1038.43" y2="274.718" gradientUnits="userSpaceOnUse">
<stop stop-color="#42BBFF"/>
<stop offset="1" stop-color="#62F4EC"/>
</linearGradient>
<linearGradient id="paint1_linear_18_7" x1="633.333" y1="0" x2="1008.8" y2="77.4771" gradientUnits="userSpaceOnUse">
<stop stop-color="#42BBFF"/>
<stop offset="1" stop-color="#62F4EC"/>
</linearGradient>
<linearGradient id="paint2_linear_18_7" x1="-49.3334" y1="221.76" x2="457.253" y2="294.478" gradientUnits="userSpaceOnUse">
<stop stop-color="#42BBFF"/>
<stop offset="1" stop-color="#62F4EC"/>
</linearGradient>
</defs>
</svg>
